<svg clip-rule="evenodd" fill-rule="evenodd" stroke-linejoin="round" stroke-miterlimit="2" viewBox="0 0 269 164" xmlns="http://www.w3.org/2000/svg" xmlns:xlink="http://www.w3.org/1999/xlink"><clipPath id="a"><path clip-rule="evenodd" d="m0 0h268.7v164h-268.7z"/></clipPath><path d="m0 0h268.7v164h-268.7z" fill="none"/><g clip-path="url(#a)" fill-rule="nonzero"><path d="m162.278 114.896c-.372.316-.822.199-1.238.199-20.87.006-41.74.023-62.61-.03-1.64-.004-2.821.481-4.044 1.552-6.435 5.632-12.734 11.408-18.807 17.429-5.239 5.194-10.368 10.493-15.3 15.983-3.994 4.446-7.903 8.964-11.688 13.588-.133.163-.226.478-.506.356-.248-.108-.179-.407-.156-.621.471-4.33.132-8.695.575-13.028.115-1.135.026-2.288.078-3.432.241-5.313.275-10.634.624-15.944.155-2.37.012-4.748.189-7.122.318-4.278.169-8.577.514-12.858.121-1.503.032-1.442-1.434-1.577-2.789-.255-5.57-.602-8.355-.898-3.667-.391-7.336-.765-11.003-1.155-2.7-.288-5.398-.597-8.099-.884-2.7-.286-5.402-.551-8.102-.838-2.358-.251-4.715-.519-7.072-.78-1.732-.192-3.464-.384-5.196-.58-.219-.025-.538.083-.626-.148-.107-.284.206-.423.402-.57 3.477-2.604 6.934-5.237 10.44-7.802 5.146-3.765 10.431-7.331 15.776-10.805 5.225-3.398 10.525-6.678 15.895-9.845 6.578-3.878 13.262-7.561 20.02-11.115 9.545-5.02 19.277-9.646 29.157-13.963.786-.344 1.554-.733 2.358-1.026.709-.258.921-.699.917-1.43-.026-4.637-.015-9.274-.009-13.911 0-.393-.088-.806.152-1.171.353.199.381.546.402.893.035.601.022 1.202.022 1.803.001 25.619 0 51.237.001 76.855 0 2.432.033 2.464 2.427 2.464 20.756-.001 41.512-.004 62.269.01.687.001 1.45-.221 2.027.401" fill="#fee100"/><path d="m139.947 32.278c1.897-.812 3.914-1.24 5.88-1.826 2.27-.677 4.573-1.243 6.856-1.876 3.443-.956 6.911-1.812 10.387-2.633 2.279-.539 4.543-1.152 6.838-1.601 1.905-.373 3.806-.761 5.71-1.138 2.211-.437 4.422-.873 6.64-1.268 2.251-.401 4.506-.779 6.767-1.115 2.797-.416 5.599-.805 8.405-1.156 4.397-.551 8.798-1.047 13.225-1.321 3.229-.201 6.458-.303 9.691-.343 1.328-.016 1.356-.142 1.229-1.463-.321-3.328-.627-6.66-.847-9.996-.106-1.627-.432-3.236-.385-4.873.008-.273.001-.547.001-.82.093-.065.186-.129.279-.193.376.451.726.927 1.133 1.35 4.004 4.164 8.016 8.32 12.029 12.475.826.854.86.803 1.611-.095 3.026-3.618 6.084-7.21 9.129-10.814.793-.938 1.576-1.886 2.378-2.818.234-.271.403-.623.793-.754.271.269.169.601.165.897-.065 5.293-.136 10.586-.216 15.879-.011.715-.096 1.428-.111 2.141-.024 1.192.023 1.268 1.178 1.188 2.253-.157 4.502-.373 6.753-.554 3.504-.282 7.01-.553 10.515-.831.399-.031.797-.073 1.196-.105.191-.016.427-.123.544.098.124.235-.116.359-.25.489-1.369 1.339-2.741 2.676-4.119 4.006-2.181 2.104-4.368 4.202-6.551 6.302-.927.893-1.839 1.801-2.783 2.675-.558.517-.52.874.074 1.372 4.694 3.926 9.364 7.88 14.035 11.833.229.194.518.353.617.694-.32.22-.67.112-.998.114-6.011.04-12.013-.396-18.024-.339-1.216.011-1.287.024-1.192 1.259.289 3.791.624 7.579.934 11.368.201 2.449.39 4.9.578 7.351.006.073-.052.151-.112.31-.957-.696-1.661-1.593-2.445-2.398-2.991-3.074-5.962-6.169-8.935-9.261-.713-.743-1.415-1.497-2.097-2.268-.509-.574-.87-.507-1.36.077-4.057 4.842-8.141 9.66-12.22 14.484-.07.083-.167.145-.264.227-.327-.299-.178-.663-.182-.98-.073-5.81.299-11.611.326-17.42.005-1.177-.098-1.274-1.205-.963-5.114 1.437-10.303 2.608-15.347 4.3-.706.237-1.455.286-2.206.269-2.504-.056-4.969.286-7.368.959-1.509.423-2.865 1.149-3.375 2.853-.209.696-1.53 1.066-2.103.622-2.338-1.81-4.929-3.102-7.799-3.804-1.834-.448-3.702-.706-5.59-.793-.526-.429-.418-1.037-.42-1.595-.016-5.095-.006-10.19-.008-15.285-.001-2.301-.144-2.447-2.419-2.447-10.88-.001-21.759 0-32.639-.001-.515 0-1.031.014-1.545-.031-.316-.028-.64-.051-.781-.414" fill="#fee100"/><path d="m171.635 38.34c-3.458 2.68-6.914 5.361-10.373 8.037-2.263 1.751-4.518 3.511-6.807 5.226-.546.409-.723.849-.722 1.51.016 14.308.01 28.616.013 42.926 0 .658.006 1.279-.467 1.852-.336.406-.38.996-.028 1.448.773.992.381 2.188.653 3.256.32 1.26-.044 2.675.768 3.799.821 1.135 2.089 1.556 3.41 1.783.9.154 1.812.269 2.723.323.532.031.799.212.81.744-.201.344-.543.392-.889.398-2.671.044-5.343.039-8.015.004-.417-.006-.783-.123-1.05-.464-.363-.571-.262-1.215-.263-1.834-.01-8.12-.007-16.242-.006-24.363 0-1.757-.006-1.737-1.728-1.373-1.812.382-3.634.352-5.445-.055-1.517-.341-1.765-.147-1.766 1.434-.006 8.235.003 16.471-.01 24.707-.001.584.134 1.216-.349 1.711-.788.319-1.558.441-2.259-.2-.393-.497-.286-1.091-.288-1.65-.015-6.123-.007-12.247-.008-18.371-.001-1.702-.079-1.764-1.775-1.41-1.823.381-3.635.313-5.451-.072-1.527-.324-1.712-.162-1.714 1.382-.005 6.239.005 12.476-.009 18.715-.001.557.117 1.161-.365 1.62-.212.177-.471.19-.727.21-1.228.092-1.47-.124-1.471-1.347-.005-2.993-.041-5.988.014-8.981.029-1.637-.263-3.23-.419-4.839-.275-.661-.785-.437-1.242-.31-2.096.581-4.185.528-6.271-.041-1.023-.279-1.131-.419-1.172-1.483-.02-.515-.011-1.03-.011-1.545-.001-13.1-.023-26.202.031-39.302.006-1.51-.504-2.418-1.764-3.195-4.99-3.079-9.95-6.207-14.883-9.377-.375-.241-.851-.419-.765-1.015.202-.459.628-.418 1.017-.459 22.652.712 45.31.116 67.964.318.383.003.816-.109 1.109.283" fill="#00205b"/><path d="m128.274 94.114c.009 4.443.013 8.886.029 13.328.007 1.963-.213 1.816 1.864 1.799.213-.074.411-.169.656-.15 1.909.148 3.822.014 5.732.078 1.203.041 2.378-.14 3.56-.3.524.696 1.27.253 1.906.372.213-.076.413-.168.657-.149 1.91.144 3.825.023 5.736.073 1.198.031 2.383-.038 3.554-.296.23.455.659.377 1.047.378 2.867.002 5.733-.002 8.6-.003.607 1.839 1.104 3.69.663 5.652-.973.006-1.946.016-2.92.016-20.641.001-41.282 0-61.923.001-.286 0-.574-.008-.858.014-1.461.116-1.462.119-1.462-1.312 0-21.353-.002-42.706 0-64.058 0-5.696.01-11.392.015-17.086.41-.179.845-.11 1.27-.11 13.859-.004 27.719-.001 41.578-.005.656 0 1.313-.051 1.969-.078.715.017 1.429.048 2.144.048 11.394.003 22.787.001 34.181.001 1.502 0 1.505.002 1.503 1.521-.004 6.068-.011 12.136-.016 18.203-1.572.003-3.138.11-4.682.39-.68.124-.825-.074-.821-.72.023-4.306.016-8.612.001-12.919-.001-.272.269-.984-.524-.512-.536-.108-1.079-.064-1.618-.064-22.193-.004-44.386-.003-66.579-.007-.338 0-.687.08-1.014-.078-.296-.004-.596-.03-.86.149-.384.763-.444 1.578-.444 2.419.007 21.946.005 43.892.006 65.838 0 .228-.004.457.004.686.044 1.207.337 1.477 1.579 1.459.775.328 1.572.232 2.375.143.482-.054.965.014 1.44.109 1.57.373 3.167.173 4.752.212.993.024 1.988-.018 2.981.011.762.023 1.459-.163 2.133-.49.668-.01 1.302.231 1.963.274 1.04.27 2.102.207 3.159.208 1.459.002 2.919.023 4.377-.008 1.317-.028 1.688-.4 1.693-1.71.016-3.804.003-7.608.007-11.412.001-.429-.015-.859.046-1.285.046-.318.104-.641.541-.63" fill="#fe4001"/><path d="m207.283 114.208c1.06.146 1.908.173 2.765.108.651-.049.976-.323 1.091-.959.547-3.029-.622-5.355-2.924-7.224-.266-.216-.524-.498-.834-.594-1.299-.402-1.595-1.437-1.767-2.593-.047-.314.049-.566.176-.818 1.692-3.333 1.601-6.716.57-10.246-.739-2.53-2.288-4.36-4.191-5.999-.413-.355-.723-.699-.768-1.261-.028-.339-.124-.675-.212-1.006-.902-3.397-2.062-3.512-4.873-3.309-1.023.074-2.031.354-3.07.254-.883-.085-1.583-.668-1.522-1.531.055-.789-.206-1.679.452-2.375.106-.112.219-.329.081-.473-.534-.556-.552-1.119-.298-1.843.131-.375-.203-.871-.634-1.123-.564-.33-1.12-.677-1.706-.964-.511-.25-.578-.557-.305-1.026.568-.972 1.314-1.805 2.102-2.588.881-.877 1.27-1.837 1.25-3.12-.031-2.061.699-3.916 2.137-5.446.538-.573 1.177-.892 1.989-.781.567.077.983-.146 1.058-.729.071-.562-.31-.805-.818-.905-.558-.11-1.137-.144-1.63-.486-.63-.436-.687-.919-.181-1.502.375-.432.874-.651 1.395-.799 5.21-1.485 10.374-1.609 15.452.558 4.862 2.075 7.802 6.474 7.182 11.709-.594 5.006-2.228 9.716-6.376 13.082-.787.639-1.19 1.433-1.289 2.409-.122 1.195-.227 2.391-.343 3.586-.016.165-.026.342-.092.491-.386.877-.236 1.163.698 1.444 3.717 1.119 6.624 3.393 9.032 6.37 1.138 1.406 1.157 3.142 1.336 4.805.659 6.143.274 12.291.031 18.438-.019.496-.232.625-.69.624-3.549-.011-7.098-.009-10.648-.002-.38.001-.561-.12-.769-.486-.377-.663-.921-1.23-1.396-1.837-.438-.558-.879-1.115-1.461-1.853" fill="#00205b"/><path d="m194.345 82.396c-3.309-.077-6.178.905-8.417 3.558-.497-1.311-.69-2.547-.871-3.784-.078-.53-.164-1.077-.843-1.096-.667-.019-.791.515-.932 1.033-.626 2.294-.526 4.653-.633 6.991-.027.59.204 1.173.518 1.704.914 1.541.626 3.982-.611 5.288-.079.083-.161.163-.24.246-1.161 1.208-1.288 1.851-.137 2.989.811.802.605 1.795.965 2.661.01.024-.009.062.004.083.591 1.02.554 2.145.648 3.272.064.758.776 1.157 1.509 1.335 1.255.304 2.447.083 3.563-.533 1.195-.659 1.172-.666 1.617.564.486 1.341 1.055 2.649 1.866 3.834.847 1.237.782 2.517.214 3.83-.114.262-.21.532-.328.792-1.429 3.168-1.512 3.221-4.935 3.221-3.063.001-6.126-.014-9.189.013-.645.005-1.073-.087-1.241-.819-.141-.61-.501-1.148-.953-1.607-.137-.139-.297-.302-.341-.48-.497-1.997-1.052-3.983-1.437-6.003-.54-2.83.742-5.016 2.634-6.995 1.929-2.017 3.295-4.348 3.077-7.273-.147-1.97-.898-3.767-1.969-5.416-1.079-1.662-2.52-2.95-4.272-3.872-.41-.216-.593-.462-.535-.936.088-.709.126-1.425.175-2.138.062-.909-.288-1.296-1.188-1.229-1.051.077-2.044-.151-3.037-.44-.433-.125-.621-.357-.484-.811.263-.876.056-1.644-.593-2.275-.296-.287-.385-.521-.072-.856.293-.315.308-.851.028-1.009-.719-.406-.667-1.055-.582-1.622.153-1.029-.577-1.318-1.213-1.715-.944-.588-.981-.716-.396-1.66.499-.805 1.083-1.546 1.724-2.238.973-1.053 1.268-2.214.606-3.525-.354-.7-.206-1.393-.09-2.098.084-.508.165-1.016.256-1.523.112-.628-.15-1.042-.773-1.067-.468-.019-.513-.216-.47-.576.194-1.592.701-3.062 1.706-4.331.434-.55.981-.963 1.665-1.156 6.572-1.851 12.851-1.348 18.72 2.355 1.169.737 2.166 1.683 3.093 2.704.298.328.393.585.149 1.042-.859 1.61-1.386 3.322-1.256 5.178.034.498-.181.87-.491 1.231-.837.974-1.788 1.852-2.463 2.962-.955 1.57-.72 2.556.857 3.45.297.168.617.296.926.444.152.073.319.118.239.365-.189.586.074 1.228-.046 1.756-.219.963.052 1.868.055 2.794.007 1.891 1.421 3.116 3.52 3.219.221.011.453-.101.704.169" fill="#00205b"/><path d="m192.347 118.296c.535-1.021 1.097-1.942 1.557-2.921 1.005-2.139.934-4.145-.449-6.115-.809-1.151-1.314-2.455-1.618-3.843-.269-1.235-1.676-1.72-3-1.058-.818.408-1.602.885-2.569.821-.619-.041-1.143-.028-.817-.978.212-.616.198-1.379-.368-1.923-.171-.165-.216-.277-.128-.502.152-.391-.001-.721-.296-.999-.081-.076-.211-.196-.193-.265.276-1.1-.602-1.568-1.204-2.162-.307-.303-.284-.468.017-.731 1.504-1.313 2.034-2.986 2.027-4.964-.008-2.255.642-4.366 2.195-6.071 2.133-2.339 4.884-2.872 7.852-2.309 3.635.689 6.555 2.686 8.471 5.783 1.371 2.215 1.9 4.824 1.668 7.5-.136 1.564-.67 3.005-1.382 4.387-.131.255-.332.512-.239.799.254.788.466 1.538.256 2.408-.112.467.456.708.89.904 1.559.706 2.962 1.618 3.872 3.126.528.875.785 1.829.791 2.858.003.508-.192.692-.711.702-2.034.042-3.455-.969-4.255-3.073-.5-1.316-.818-2.68-1.073-4.057-.107-.582-.344-1.066-.947-1.179-.68-.127-1.376-.097-1.951.379-.325.27-.317.612-.206 1.013.757 2.736 1.942 5.209 3.902 7.335 1.447 1.57 2.661 3.354 4.051 5.135z" fill="#00205b"/><path d="m169.138 118.383c-1.802 0-3.606-.033-5.407.018-.683.019-.766-.22-.59-.773.095-.299.105-.633.239-.909 1.245-2.579.639-5.155-.114-7.672-.699-2.34-.364-2.073-2.748-2.183-1.288-.059-2.571-.211-3.757-.769-.96-.452-1.076-.788-.754-1.808.1-.319.242-.666-.027-.977-.241-.278-.061-.547-.063-.83-.004-.787.138-1.514.314-2.273.112-.486-.365-.889-.902-1.089-.691-.258-.712-.616-.108-1.061 1.549-1.141 2.337-2.67 2.687-4.589.893-4.892 5.365-8.07 10.31-7.494 5.173.603 8.582 3.435 9.793 8.014.628 2.376-.037 4.387-1.42 6.272-.878 1.198-1.991 2.199-2.809 3.453-1.384 2.121-1.641 4.412-1.114 6.816.391 1.785.895 3.545 1.329 5.322.126.517.284.979.785 1.26.231.129.323.382.439.616.238.479.133.666-.418.662-1.888-.016-3.777-.006-5.665-.006" fill="#00205b"/><path d="m165.351 61.519c.183.415.322.816.675 1.093.642.503.32.773-.258.983-1.854.673-3.704 1.356-5.557 2.034-1.423.52-2.854 1.021-4.266 1.568-.548.212-.774.161-.772-.491.013-4.437.004-8.873.001-13.309 0-.352.038-.662.368-.903 4.686-3.421 9.366-6.852 14.051-10.284.309.263.174.572.175.831.013 3.119.009 6.238.005 9.359-.001.359.076.729-.369.956-2.485 1.268-3.423 3.567-3.953 6.098-.096.458-.241.672-.685.817-2.607.857-4.486-.693-4.264-3.58.238-3.081 1.631-5.612 3.814-7.742.199-.195.525-.312.29-.669-.21-.319-.457-.21-.743-.069-3.698 1.836-6.631 6.888-6.388 11.026.195 3.307 2.853 4.895 5.875 3.517.704-.322 1.328-.769 2.001-1.235" fill="#00205b"/><path d="m155.176 76.553c0-2.174.02-4.35-.013-6.524-.009-.595.201-.841.76-1.018 3.188-1.011 6.361-2.07 9.546-3.09.304-.097.659-.503.981-.051.329.461.524.988.175 1.516-.329.499-.723.955-1.093 1.427-.652.831-1.337 1.636-1.681 2.666-.333.993-.101 1.779.759 2.379.117.081.242.155.372.212.613.268.837.619.846 1.391.016 1.334-.105 2.795 1.068 3.855.206.187.105.482.078.739-.166 1.601.392 2.384 1.964 2.791.393.102.843.078.853.729.012.72-.088.927-.936.874-2.91-.18-5.831-.196-8.747-.286-1.402-.044-2.802-.14-4.204-.158-.568-.007-.739-.207-.734-.755.021-2.231.009-4.464.009-6.697z" fill="#00205b"/><path d="m94.524 118.691c1.243-1.229 2.236-2.061 3.974-2.055 20.578.073 41.156.048 61.734.048h.086c1.462.002 1.451.014 1.03 1.422-.142.477-.422.533-.823.536-1.402.009-2.804.049-4.206.05-20.234.002-40.469 0-60.703-.001z" fill="#fe4001"/><path d="m145.504 28.712c-2.978.872-5.799 2.021-9 1.992-13.964-.124-27.93-.052-41.895-.051-1.223 0-1.224.002-1.224 1.208 0 4.864 0 9.728.001 14.592 0 .986-.668 1.71-1.618 1.78-.289.021-.349-.139-.361-.354-.016-.285-.014-.572-.014-.858-.008-5.78-.009-11.559-.028-17.339-.002-.664.094-1.025.925-1.024 17.542.026 35.085.021 52.627.024.196 0 .391.019.587.03" fill="#fe4001"/><path d="m155.368 95.706c-.215-.133-.185-.286-.185-.419-.004-2.947.002-5.895-.014-8.842-.002-.517.139-.695.695-.638 1.587.164 3.18.264 4.93.402-.634.587-1.163 1.048-1.66 1.543-1.57 1.564-2.481 3.47-2.866 5.64-.148.831-.297 1.661-.9 2.314" fill="#00205b"/><path d="m160.398 62.378c-1.352-.438-2.105-1.516-2.207-3.123-.133-2.098.522-3.997 1.506-5.795.457-.834.939-1.673 1.738-2.27-.445 1.199-1.121 2.298-1.38 3.553-.302 1.465-.495 2.943.14 4.365.676 1.512 1.868 2.252 3.542 2.174.131-.006.278-.081.421.111-.598.494-1.264.831-2.027.98-.577.229-1.155.22-1.733.005" fill="#fee100"/><path d="m102.522 38.142c22.707-.002 45.414-.005 68.122-.005.368 0 .747-.048 1.089.154-.023.035-.056.051-.097.05-.829-.011-1.658-.03-2.486-.03-21.733-.002-43.465-.001-65.198-.005-.48 0-.977.091-1.43-.164" fill="#191919"/><path d="m160.398 62.378c.578-.002 1.155-.004 1.733-.005-.576.457-1.154.458-1.733.005" fill="#d7d7d7"/><path d="m128.274 94.114c-.212.279-.135.605-.135.913-.002 4.52-.007 9.04.016 13.56.004.623-.114.948-.829.94-2.718-.028-5.437-.011-8.155-.018-.306-.001-.642.049-.856-.268-.359-.272-.411-.658-.415-1.071-.009-.971.01-1.941-.012-2.911-.008-.327.055-.791-.417-.803-.466-.013-.56.433-.589.809-.065.854-.004 1.711-.036 2.567-.013.358.084.757-.27 1.03-.095.5-.398.669-.899.666-2.757-.017-5.514-.009-8.27-.014-.283-.001-.578.004-.768-.272-.453-.714-1.02-.807-1.794-.468-.61.268-1.304.308-1.982.306-2.06.501-2.062.5-2.062-1.657-.001-22.723-.001-45.447-.002-68.172 0-.143.013-.287 0-.429-.066-.755.275-.84.863-.532 5.674 3.592 11.342 7.191 17.03 10.759.534.336.708.696.707 1.307-.012 14.011.005 28.022-.025 42.032-.002.909.303 1.237 1.139 1.413 2.232.47 4.438.508 6.579-.337.784-.31 1.167-.26 1.182.65" fill="#fdfdfd"/><path d="m151.968 108.87c-.104.491-.403.662-.905.659-2.728-.02-5.456-.011-8.184-.02-.305-.001-.638.029-.858-.267.013-7.929.026-15.857.038-23.785.002-1.403.007-2.805-.012-4.207-.008-.541.065-.784.715-.558 2.88 1.002 5.768 1.11 8.634-.079.401-.167.513-.023.498.366-.017.455-.008.91-.008 1.365 0 8.501-.001 17.001.003 25.503.001.341.052.682.079 1.023" fill="#fdfdfd"/><path d="m140.114 108.869c-.108.418-.308.674-.807.67-2.762-.023-5.524-.017-8.286-.031-.303-.001-.641.047-.854-.267.01-7.122.019-14.242.029-21.364.001-.257.007-.514.003-.772-.006-.333.103-.48.463-.349 3.1 1.129 6.193 1.205 9.265-.145.225.629.108 1.197.108 1.76-.002 6.549-.003 13.099.001 19.648.001.283.051.567.078.85" fill="#fdfdfd"/><path d="m146.973 81.134c-.765-1.74-1.683-3.166-2.17-4.793-.521-1.741-.322-3.427.424-5.055.452-.987.949-1.953 1.44-2.92.112-.221.283-.682.541-.142.864 1.815 2.03 3.509 2.213 5.604.099 1.14-.081 2.236-.506 3.262-.544 1.308-1.222 2.56-1.942 4.044" fill="#fcfcfc"/><path d="m135.099 73.629c3.409 5.849 3.233 7.595.026 12.956-2.894-4.92-3.66-6.664-.026-12.956" fill="#fcfcfc"/><path d="m123.22 93.514c-3.139-5.599-3.328-7.016-.016-12.951 3.184 3.537 3.208 9.023.016 12.951" fill="#fbfbfb"/><path d="m116.575 108.862c-.167-1.445-.051-2.895-.066-4.344-.004-.372 1.399-1.124 1.705-.939.21.127.129.358.129.543-.004 1.707-.018 3.413-.029 5.119-.586-.096-1.279.297-1.739-.379" fill="#00205b"/><path d="m102.863 109.08c1.018-.377 2.049-.722 3.048-1.143.625-.263.831-.115.761.535-.028.255-.023.514-.033.771-1.258-.072-2.53.188-3.776-.163" fill="#00205b"/><path d="m159.019 73.082c.421 1.03 1.046.409 1.725.157.286-.106.419.342.307.635-.254.661-.379 1.223.431 1.639.312.161.27.616-.123.717-.739.189-1.045.604-.957 1.348.029.243-.047.466-.294.558-.266.099-.447-.069-.557-.278-.261-.501-.578-.56-.975-.16-.16.161-.341.222-.533.09-.219-.148-.245-.37-.16-.609.215-.6.296-1.1-.427-1.505-.368-.207-.018-.624.259-.707.673-.201.748-.694.769-1.257.012-.291.009-.599.535-.628" fill="#f9f9f9"/><path d="m102.901 74.006c-.001-3.033.016-6.067-.013-9.099-.006-.702.066-.959.886-.723 4.421 1.275 8.857 2.501 13.3 3.703.631.171.784.461.782 1.069-.02 4.721-.024 9.443.011 14.164.006.735-.245.91-.926.914-4.379.022-8.758.065-13.136.138-.7.012-.93-.161-.921-.895.041-3.09.018-6.181.017-9.271" fill="#00205b"/><path d="m102.917 51.537c0-3.087.013-6.176-.01-9.263-.005-.696.081-.876.769-.458 4.493 2.727 9.003 5.427 13.518 8.117.469.279.674.58.671 1.149-.023 4.746-.022 9.492 0 14.239.003.701-.142.874-.866.644-4.436-1.41-8.884-2.787-13.337-4.143-.62-.188-.764-.511-.759-1.108.025-3.059.011-6.117.011-9.177z" fill="#00205b"/><path d="m111.584 98.433c1.316-2.582 2.889-4.919 2.383-7.888-.213-1.251-.849-2.347-1.404-3.47-.433-.877-.42-.906.581-.957 1.315-.068 2.632-.098 3.944-.187.538-.037.771.076.769.675-.017 4.864-.023 9.728.009 14.592.005.827-.589.809-1.07.931-.354.089-.288-.274-.286-.476.005-.943.038-1.885.046-2.827.007-.933-.081-1.003-.944-.676-2.601.986-5.207.912-7.82.066-1.137-.368-1.131-.373-1.128.832.005 1.916-.016 3.834.019 5.75.01.556-.181.825-.706.973-.798.223-1.588.482-2.364.772-.516.193-.719.12-.718-.48.013-6.296.009-12.59.002-18.885-.001-.409.094-.626.565-.643 2.288-.082 4.575-.18 6.861-.306.684-.038.617.22.389.677-.696 1.398-1.461 2.754-1.56 4.387-.069 1.144.101 2.241.504 3.259.51 1.287 1.226 2.492 1.928 3.881" fill="#00205b"/><g fill="#fee100"><path d="m119.699 101.522c0-1.916.007-3.834-.005-5.75-.003-.551.143-.783.761-.633 1.773.429 3.574.422 5.359.106.748-.133 1.073.018 1.07.82-.016 3.719-.018 7.438.002 11.157.004.708-.289.98-.969.974-1.774-.013-3.548-.016-5.322 0-.655.006-.915-.256-.905-.923.027-1.916.009-3.834.009-5.751"/><path d="m108.023 103.901c-.001-1.086.021-2.172-.008-3.257-.019-.699.242-.928.929-.762 1.833.443 3.676.419 5.511.02.543-.119.746.059.745.586-.005 2.314-.007 4.628-.001 6.942.001.507-.262.742-.735.744-1.915.008-3.829.003-5.743.003-.576 0-.707-.35-.701-.848.012-1.142.004-2.285.003-3.428"/><path d="m112.669 91.799c-.054 1.125-.325 2.08-.757 2.993-.179.379-.366.531-.612.053-1.027-1.992-1.071-3.991-.043-5.996.233-.454.448-.437.686.006.513.956.674 1.991.726 2.944"/><path d="m143.407 95.247c0-3.917-.002-7.834.001-11.753.001-1.046.01-1.064 1.061-.898 1.68.266 3.354.267 5.038.02 1.061-.155 1.077-.125 1.078 1.002.004 3.833.002 7.664.002 11.495 0 3.975-.019 7.95.015 11.924.007.857-.289 1.186-1.137 1.168-1.658-.034-3.318-.032-4.976-.007-.799.012-1.104-.282-1.097-1.113.034-3.945.015-7.892.015-11.838"/><path d="m138.615 98.421c-.001 2.89-.022 5.779.013 8.669.01.793-.205 1.141-1.056 1.116-1.687-.049-3.376-.032-5.064-.008-.699.01-.963-.273-.962-.969.015-5.922.016-11.844.002-17.766-.002-.789.243-.966 1.033-.776 1.687.406 3.414.347 5.111.05.807-.141.935.168.931.844-.017 2.947-.007 5.894-.008 8.84"/><path d="m148.061 74.429c-.05.973-.239 1.914-.683 2.793-.086.171-.137.415-.364.435-.237.02-.32-.22-.403-.387-.967-1.943-.963-3.881.045-5.814.236-.453.427-.472.655.011.442.939.698 1.921.75 2.962"/><path d="m134.115 80.109c-.096-1.013.217-1.92.646-2.799.083-.169.116-.416.381-.39.192.018.261.202.337.352 1.002 1.973.93 3.944-.039 5.903-.221.447-.447.353-.638-.044-.463-.959-.809-1.944-.687-3.022"/><path d="m122.113 86.817c.065-.85.356-1.766.784-2.643.23-.471.486-.533.74-.004.926 1.928.893 3.854-.017 5.774-.079.167-.136.455-.37.399-.154-.037-.303-.256-.378-.428-.416-.944-.731-1.918-.759-3.098"/><path d="m160.414 75.645c-.468.196-.438.84-.916.861-.581.024-.805-.521-.794-.916.011-.367.403-.789.836-.805.513-.02.411.687.874.86"/></g><path d="m105.538 69.486c.117.088.263.177.382.293.329.32.614.371.877-.079.118-.202.287-.383.555-.295.303.1.33.371.315.633-.037.605.133 1.035.785 1.228.471.14.471.541.108.762-.584.356-.526.8-.354 1.315.094.28.177.556-.138.759-.259.169-.431-.012-.594-.165-.328-.312-.575-.262-.823.11-.13.196-.25.481-.587.391-.339-.089-.308-.375-.308-.624.002-.629-.186-1.079-.875-1.261-.45-.119-.647-.485-.157-.784.626-.381.651-.842.409-1.439-.155-.381-.172-.739.405-.844" fill="#f9f9f9"/><path d="m113.57 78.407c.356-.074.451.083.569.204.277.284.525.319.731-.08.124-.24.339-.312.573-.208.233.104.294.322.274.572-.042.503.091.87.657 1.022.412.111.46.507.148.718-.487.328-.534.687-.334 1.168.108.258.118.509-.147.684-.25.164-.424.004-.596-.159-.302-.287-.52-.123-.673.159-.125.229-.278.371-.541.292-.301-.09-.357-.331-.327-.613.055-.526-.166-.832-.677-1.025-.366-.139-.697-.466-.157-.799.509-.314.507-.688.32-1.165-.139-.355-.129-.676.18-.77" fill="#f9f9f9"/><path d="m115.456 59.856c-.177-.026-.431-.063-.686-.101-1.161-.175-1.157-.175-1.257 1.047-.038.457-.101.91-.14 1.366-.021.246-.095.465-.347.533-.285.076-.4-.16-.512-.359-.406-.723-.834-1.435-1.199-2.178-.248-.504-.535-.75-1.131-.597-.467.12-.961.146-1.445.19-.726.067-.995-.194-.661-.793 1.033-1.854.646-3.382-.865-4.748-.251-.227-.414-.548-.645-.801-.17-.186-.302-.35-.118-.592.163-.213.362-.224.61-.147.382.117.776.195 1.164.292 1.295.324 1.299.324 1.447-.961.053-.455.102-.912.11-1.368.005-.29.069-.531.358-.599.318-.075.44.199.56.426.387.733.824 1.447 1.135 2.212.308.756.775.969 1.571.919 1.747-.11 1.814-.043 1.196 1.582-.389 1.02-.346 1.83.434 2.623.377.382.637.879.973 1.306.148.189.317.344.134.592-.156.21-.367.257-.686.156" fill="#fafafa"/><path d="m113.883 54.971c.052-.57-.348-.501-.715-.537-.468-.046-1.026.245-1.369-.327.567.19 1.136-.043 1.705.01.644.06.873.294.379.854" fill="#e0e0e0"/><path d="m107.563 71.799c-.299.381-.37.965-.911.881-.36-.056-.839-.399-.783-.731.055-.33.144-.92.698-.951.561-.031.577.623.996.801" fill="#fee100"/><path d="m114.758 79.888c.313.087.659.242.622.582-.029.256-.091.697-.493.704-.369.007-.66-.264-.685-.624-.021-.316.183-.589.556-.662" fill="#fee100"/><path d="m113.883 54.971c-.655 1.273-.286 2.347.616 3.341.186.205.499.549-.162.604-.462.038-1.023-.343-1.369.153-.282.404-.099.95-.17 1.428-.012.082-.048.161-.098.316-.533-.338-.692-.896-.947-1.367-.309-.571-.67-.902-1.366-.632-.231.09-.507.071-.764.084-.451.024-.627-.206-.55-.64.02-.112.039-.234.097-.327.775-1.248.341-2.245-.629-3.143-.104-.095-.185-.219-.263-.337-.119-.179-.379-.348-.185-.587.141-.173.387-.089.566-.017 1.529.627 1.58.099 1.745-1.288.022-.186-.056-.403.17-.579.543.637.76 1.456 1.225 2.127.528.502 1.149.095 1.722.16.575.064.617.276.362.704" fill="#fee100"/></g></svg>