<?xml version="1.0" encoding="UTF-8" standalone="no"?><!DOCTYPE svg PUBLIC "-//W3C//DTD SVG 1.1//EN" "http://www.w3.org/Graphics/SVG/1.1/DTD/svg11.dtd"><svg width="100%" height="100%" viewBox="0 0 269 164" version="1.1" xmlns="http://www.w3.org/2000/svg" xmlns:xlink="http://www.w3.org/1999/xlink" xml:space="preserve" xmlns:serif="http://www.serif.com/" style="fill-rule:evenodd;clip-rule:evenodd;stroke-linejoin:round;stroke-miterlimit:2;"><rect id="Page-6" serif:id="Page 6" x="0" y="0" width="268.7" height="164" style="fill:none;"/><clipPath id="_clip1"><rect x="0" y="0" width="268.7" height="164"/></clipPath><g clip-path="url(#_clip1)"><g><path d="M162.278,114.896c-0.372,0.316 -0.822,0.199 -1.238,0.199c-20.87,0.006 -41.74,0.023 -62.61,-0.03c-1.64,-0.004 -2.821,0.481 -4.044,1.552c-6.435,5.632 -12.734,11.408 -18.807,17.429c-5.239,5.194 -10.368,10.493 -15.3,15.983c-3.994,4.446 -7.903,8.964 -11.688,13.588c-0.133,0.163 -0.226,0.478 -0.506,0.356c-0.248,-0.108 -0.179,-0.407 -0.156,-0.621c0.471,-4.33 0.132,-8.695 0.575,-13.028c0.115,-1.135 0.026,-2.288 0.078,-3.432c0.241,-5.313 0.275,-10.634 0.624,-15.944c0.155,-2.37 0.012,-4.748 0.189,-7.122c0.318,-4.278 0.169,-8.577 0.514,-12.858c0.121,-1.503 0.032,-1.442 -1.434,-1.577c-2.789,-0.255 -5.57,-0.602 -8.355,-0.898c-3.667,-0.391 -7.336,-0.765 -11.003,-1.155c-2.7,-0.288 -5.398,-0.597 -8.099,-0.884c-2.7,-0.286 -5.402,-0.551 -8.102,-0.838c-2.358,-0.251 -4.715,-0.519 -7.072,-0.78c-1.732,-0.192 -3.464,-0.384 -5.196,-0.58c-0.219,-0.025 -0.538,0.083 -0.626,-0.148c-0.107,-0.284 0.206,-0.423 0.402,-0.57c3.477,-2.604 6.934,-5.237 10.44,-7.802c5.146,-3.765 10.431,-7.331 15.776,-10.805c5.225,-3.398 10.525,-6.678 15.895,-9.845c6.578,-3.878 13.262,-7.561 20.02,-11.115c9.545,-5.02 19.277,-9.646 29.157,-13.963c0.786,-0.344 1.554,-0.733 2.358,-1.026c0.709,-0.258 0.921,-0.699 0.917,-1.43c-0.026,-4.637 -0.015,-9.274 -0.009,-13.911c-0,-0.393 -0.088,-0.806 0.152,-1.171c0.353,0.199 0.381,0.546 0.402,0.893c0.035,0.601 0.022,1.202 0.022,1.803c0.001,25.619 -0,51.237 0.001,76.855c-0,2.432 0.033,2.464 2.427,2.464c20.756,-0.001 41.512,-0.004 62.269,0.01c0.687,0.001 1.45,-0.221 2.027,0.401" style="fill:#fee100;fill-rule:nonzero;"/><path d="M139.947,32.278c1.897,-0.812 3.914,-1.24 5.88,-1.826c2.27,-0.677 4.573,-1.243 6.856,-1.876c3.443,-0.956 6.911,-1.812 10.387,-2.633c2.279,-0.539 4.543,-1.152 6.838,-1.601c1.905,-0.373 3.806,-0.761 5.71,-1.138c2.211,-0.437 4.422,-0.873 6.64,-1.268c2.251,-0.401 4.506,-0.779 6.767,-1.115c2.797,-0.416 5.599,-0.805 8.405,-1.156c4.397,-0.551 8.798,-1.047 13.225,-1.321c3.229,-0.201 6.458,-0.303 9.691,-0.343c1.328,-0.016 1.356,-0.142 1.229,-1.463c-0.321,-3.328 -0.627,-6.66 -0.847,-9.996c-0.106,-1.627 -0.432,-3.236 -0.385,-4.873c0.008,-0.273 0.001,-0.547 0.001,-0.82c0.093,-0.065 0.186,-0.129 0.279,-0.193c0.376,0.451 0.726,0.927 1.133,1.35c4.004,4.164 8.016,8.32 12.029,12.475c0.826,0.854 0.86,0.803 1.611,-0.095c3.026,-3.618 6.084,-7.21 9.129,-10.814c0.793,-0.938 1.576,-1.886 2.378,-2.818c0.234,-0.271 0.403,-0.623 0.793,-0.754c0.271,0.269 0.169,0.601 0.165,0.897c-0.065,5.293 -0.136,10.586 -0.216,15.879c-0.011,0.715 -0.096,1.428 -0.111,2.141c-0.024,1.192 0.023,1.268 1.178,1.188c2.253,-0.157 4.502,-0.373 6.753,-0.554c3.504,-0.282 7.01,-0.553 10.515,-0.831c0.399,-0.031 0.797,-0.073 1.196,-0.105c0.191,-0.016 0.427,-0.123 0.544,0.098c0.124,0.235 -0.116,0.359 -0.25,0.489c-1.369,1.339 -2.741,2.676 -4.119,4.006c-2.181,2.104 -4.368,4.202 -6.551,6.302c-0.927,0.893 -1.839,1.801 -2.783,2.675c-0.558,0.517 -0.52,0.874 0.074,1.372c4.694,3.926 9.364,7.88 14.035,11.833c0.229,0.194 0.518,0.353 0.617,0.694c-0.32,0.22 -0.67,0.112 -0.998,0.114c-6.011,0.04 -12.013,-0.396 -18.024,-0.339c-1.216,0.011 -1.287,0.024 -1.192,1.259c0.289,3.791 0.624,7.579 0.934,11.368c0.201,2.449 0.39,4.9 0.578,7.351c0.006,0.073 -0.052,0.151 -0.112,0.31c-0.957,-0.696 -1.661,-1.593 -2.445,-2.398c-2.991,-3.074 -5.962,-6.169 -8.935,-9.261c-0.713,-0.743 -1.415,-1.497 -2.097,-2.268c-0.509,-0.574 -0.87,-0.507 -1.36,0.077c-4.057,4.842 -8.141,9.66 -12.22,14.484c-0.07,0.083 -0.167,0.145 -0.264,0.227c-0.327,-0.299 -0.178,-0.663 -0.182,-0.98c-0.073,-5.81 0.299,-11.611 0.326,-17.42c0.005,-1.177 -0.098,-1.274 -1.205,-0.963c-5.114,1.437 -10.303,2.608 -15.347,4.3c-0.706,0.237 -1.455,0.286 -2.206,0.269c-2.504,-0.056 -4.969,0.286 -7.368,0.959c-1.509,0.423 -2.865,1.149 -3.375,2.853c-0.209,0.696 -1.53,1.066 -2.103,0.622c-2.338,-1.81 -4.929,-3.102 -7.799,-3.804c-1.834,-0.448 -3.702,-0.706 -5.59,-0.793c-0.526,-0.429 -0.418,-1.037 -0.42,-1.595c-0.016,-5.095 -0.006,-10.19 -0.008,-15.285c-0.001,-2.301 -0.144,-2.447 -2.419,-2.447c-10.88,-0.001 -21.759,-0 -32.639,-0.001c-0.515,-0 -1.031,0.014 -1.545,-0.031c-0.316,-0.028 -0.64,-0.051 -0.781,-0.414" style="fill:#fee100;fill-rule:nonzero;"/><path d="M171.635,38.34c-3.458,2.68 -6.914,5.361 -10.373,8.037c-2.263,1.751 -4.518,3.511 -6.807,5.226c-0.546,0.409 -0.723,0.849 -0.722,1.51c0.016,14.308 0.01,28.616 0.013,42.926c0,0.658 0.006,1.279 -0.467,1.852c-0.336,0.406 -0.38,0.996 -0.028,1.448c0.773,0.992 0.381,2.188 0.653,3.256c0.32,1.26 -0.044,2.675 0.768,3.799c0.821,1.135 2.089,1.556 3.41,1.783c0.9,0.154 1.812,0.269 2.723,0.323c0.532,0.031 0.799,0.212 0.81,0.744c-0.201,0.344 -0.543,0.392 -0.889,0.398c-2.671,0.044 -5.343,0.039 -8.015,0.004c-0.417,-0.006 -0.783,-0.123 -1.05,-0.464c-0.363,-0.571 -0.262,-1.215 -0.263,-1.834c-0.01,-8.12 -0.007,-16.242 -0.006,-24.363c0,-1.757 -0.006,-1.737 -1.728,-1.373c-1.812,0.382 -3.634,0.352 -5.445,-0.055c-1.517,-0.341 -1.765,-0.147 -1.766,1.434c-0.006,8.235 0.003,16.471 -0.01,24.707c-0.001,0.584 0.134,1.216 -0.349,1.711c-0.788,0.319 -1.558,0.441 -2.259,-0.2c-0.393,-0.497 -0.286,-1.091 -0.288,-1.65c-0.015,-6.123 -0.007,-12.247 -0.008,-18.371c-0.001,-1.702 -0.079,-1.764 -1.775,-1.41c-1.823,0.381 -3.635,0.313 -5.451,-0.072c-1.527,-0.324 -1.712,-0.162 -1.714,1.382c-0.005,6.239 0.005,12.476 -0.009,18.715c-0.001,0.557 0.117,1.161 -0.365,1.62c-0.212,0.177 -0.471,0.19 -0.727,0.21c-1.228,0.092 -1.47,-0.124 -1.471,-1.347c-0.005,-2.993 -0.041,-5.988 0.014,-8.981c0.029,-1.637 -0.263,-3.23 -0.419,-4.839c-0.275,-0.661 -0.785,-0.437 -1.242,-0.31c-2.096,0.581 -4.185,0.528 -6.271,-0.041c-1.023,-0.279 -1.131,-0.419 -1.172,-1.483c-0.02,-0.515 -0.011,-1.03 -0.011,-1.545c-0.001,-13.1 -0.023,-26.202 0.031,-39.302c0.006,-1.51 -0.504,-2.418 -1.764,-3.195c-4.99,-3.079 -9.95,-6.207 -14.883,-9.377c-0.375,-0.241 -0.851,-0.419 -0.765,-1.015c0.202,-0.459 0.628,-0.418 1.017,-0.459c22.652,0.712 45.31,0.116 67.964,0.318c0.383,0.003 0.816,-0.109 1.109,0.283" style="fill:#00205b;fill-rule:nonzero;"/><path d="M128.274,94.114c0.009,4.443 0.013,8.886 0.029,13.328c0.007,1.963 -0.213,1.816 1.864,1.799c0.213,-0.074 0.411,-0.169 0.656,-0.15c1.909,0.148 3.822,0.014 5.732,0.078c1.203,0.041 2.378,-0.14 3.56,-0.3c0.524,0.696 1.27,0.253 1.906,0.372c0.213,-0.076 0.413,-0.168 0.657,-0.149c1.91,0.144 3.825,0.023 5.736,0.073c1.198,0.031 2.383,-0.038 3.554,-0.296c0.23,0.455 0.659,0.377 1.047,0.378c2.867,0.002 5.733,-0.002 8.6,-0.003c0.607,1.839 1.104,3.69 0.663,5.652c-0.973,0.006 -1.946,0.016 -2.92,0.016c-20.641,0.001 -41.282,-0 -61.923,0.001c-0.286,-0 -0.574,-0.008 -0.858,0.014c-1.461,0.116 -1.462,0.119 -1.462,-1.312c-0,-21.353 -0.002,-42.706 -0,-64.058c-0,-5.696 0.01,-11.392 0.015,-17.086c0.41,-0.179 0.845,-0.11 1.27,-0.11c13.859,-0.004 27.719,-0.001 41.578,-0.005c0.656,-0 1.313,-0.051 1.969,-0.078c0.715,0.017 1.429,0.048 2.144,0.048c11.394,0.003 22.787,0.001 34.181,0.001c1.502,-0 1.505,0.002 1.503,1.521c-0.004,6.068 -0.011,12.136 -0.016,18.203c-1.572,0.003 -3.138,0.11 -4.682,0.39c-0.68,0.124 -0.825,-0.074 -0.821,-0.72c0.023,-4.306 0.016,-8.612 0.001,-12.919c-0.001,-0.272 0.269,-0.984 -0.524,-0.512c-0.536,-0.108 -1.079,-0.064 -1.618,-0.064c-22.193,-0.004 -44.386,-0.003 -66.579,-0.007c-0.338,0 -0.687,0.08 -1.014,-0.078c-0.296,-0.004 -0.596,-0.03 -0.86,0.149c-0.384,0.763 -0.444,1.578 -0.444,2.419c0.007,21.946 0.005,43.892 0.006,65.838c-0,0.228 -0.004,0.457 0.004,0.686c0.044,1.207 0.337,1.477 1.579,1.459c0.775,0.328 1.572,0.232 2.375,0.143c0.482,-0.054 0.965,0.014 1.44,0.109c1.57,0.373 3.167,0.173 4.752,0.212c0.993,0.024 1.988,-0.018 2.981,0.011c0.762,0.023 1.459,-0.163 2.133,-0.49c0.668,-0.01 1.302,0.231 1.963,0.274c1.04,0.27 2.102,0.207 3.159,0.208c1.459,0.002 2.919,0.023 4.377,-0.008c1.317,-0.028 1.688,-0.4 1.693,-1.71c0.016,-3.804 0.003,-7.608 0.007,-11.412c0.001,-0.429 -0.015,-0.859 0.046,-1.285c0.046,-0.318 0.104,-0.641 0.541,-0.63" style="fill:#fe4001;fill-rule:nonzero;"/><path d="M207.283,114.208c1.06,0.146 1.908,0.173 2.765,0.108c0.651,-0.049 0.976,-0.323 1.091,-0.959c0.547,-3.029 -0.622,-5.355 -2.924,-7.224c-0.266,-0.216 -0.524,-0.498 -0.834,-0.594c-1.299,-0.402 -1.595,-1.437 -1.767,-2.593c-0.047,-0.314 0.049,-0.566 0.176,-0.818c1.692,-3.333 1.601,-6.716 0.57,-10.246c-0.739,-2.53 -2.288,-4.36 -4.191,-5.999c-0.413,-0.355 -0.723,-0.699 -0.768,-1.261c-0.028,-0.339 -0.124,-0.675 -0.212,-1.006c-0.902,-3.397 -2.062,-3.512 -4.873,-3.309c-1.023,0.074 -2.031,0.354 -3.07,0.254c-0.883,-0.085 -1.583,-0.668 -1.522,-1.531c0.055,-0.789 -0.206,-1.679 0.452,-2.375c0.106,-0.112 0.219,-0.329 0.081,-0.473c-0.534,-0.556 -0.552,-1.119 -0.298,-1.843c0.131,-0.375 -0.203,-0.871 -0.634,-1.123c-0.564,-0.33 -1.12,-0.677 -1.706,-0.964c-0.511,-0.25 -0.578,-0.557 -0.305,-1.026c0.568,-0.972 1.314,-1.805 2.102,-2.588c0.881,-0.877 1.27,-1.837 1.25,-3.12c-0.031,-2.061 0.699,-3.916 2.137,-5.446c0.538,-0.573 1.177,-0.892 1.989,-0.781c0.567,0.077 0.983,-0.146 1.058,-0.729c0.071,-0.562 -0.31,-0.805 -0.818,-0.905c-0.558,-0.11 -1.137,-0.144 -1.63,-0.486c-0.63,-0.436 -0.687,-0.919 -0.181,-1.502c0.375,-0.432 0.874,-0.651 1.395,-0.799c5.21,-1.485 10.374,-1.609 15.452,0.558c4.862,2.075 7.802,6.474 7.182,11.709c-0.594,5.006 -2.228,9.716 -6.376,13.082c-0.787,0.639 -1.19,1.433 -1.289,2.409c-0.122,1.195 -0.227,2.391 -0.343,3.586c-0.016,0.165 -0.026,0.342 -0.092,0.491c-0.386,0.877 -0.236,1.163 0.698,1.444c3.717,1.119 6.624,3.393 9.032,6.37c1.138,1.406 1.157,3.142 1.336,4.805c0.659,6.143 0.274,12.291 0.031,18.438c-0.019,0.496 -0.232,0.625 -0.69,0.624c-3.549,-0.011 -7.098,-0.009 -10.648,-0.002c-0.38,0.001 -0.561,-0.12 -0.769,-0.486c-0.377,-0.663 -0.921,-1.23 -1.396,-1.837c-0.438,-0.558 -0.879,-1.115 -1.461,-1.853" style="fill:#00205b;fill-rule:nonzero;"/><path d="M194.345,82.396c-3.309,-0.077 -6.178,0.905 -8.417,3.558c-0.497,-1.311 -0.69,-2.547 -0.871,-3.784c-0.078,-0.53 -0.164,-1.077 -0.843,-1.096c-0.667,-0.019 -0.791,0.515 -0.932,1.033c-0.626,2.294 -0.526,4.653 -0.633,6.991c-0.027,0.59 0.204,1.173 0.518,1.704c0.914,1.541 0.626,3.982 -0.611,5.288c-0.079,0.083 -0.161,0.163 -0.24,0.246c-1.161,1.208 -1.288,1.851 -0.137,2.989c0.811,0.802 0.605,1.795 0.965,2.661c0.01,0.024 -0.009,0.062 0.004,0.083c0.591,1.02 0.554,2.145 0.648,3.272c0.064,0.758 0.776,1.157 1.509,1.335c1.255,0.304 2.447,0.083 3.563,-0.533c1.195,-0.659 1.172,-0.666 1.617,0.564c0.486,1.341 1.055,2.649 1.866,3.834c0.847,1.237 0.782,2.517 0.214,3.83c-0.114,0.262 -0.21,0.532 -0.328,0.792c-1.429,3.168 -1.512,3.221 -4.935,3.221c-3.063,0.001 -6.126,-0.014 -9.189,0.013c-0.645,0.005 -1.073,-0.087 -1.241,-0.819c-0.141,-0.61 -0.501,-1.148 -0.953,-1.607c-0.137,-0.139 -0.297,-0.302 -0.341,-0.48c-0.497,-1.997 -1.052,-3.983 -1.437,-6.003c-0.54,-2.83 0.742,-5.016 2.634,-6.995c1.929,-2.017 3.295,-4.348 3.077,-7.273c-0.147,-1.97 -0.898,-3.767 -1.969,-5.416c-1.079,-1.662 -2.52,-2.95 -4.272,-3.872c-0.41,-0.216 -0.593,-0.462 -0.535,-0.936c0.088,-0.709 0.126,-1.425 0.175,-2.138c0.062,-0.909 -0.288,-1.296 -1.188,-1.229c-1.051,0.077 -2.044,-0.151 -3.037,-0.44c-0.433,-0.125 -0.621,-0.357 -0.484,-0.811c0.263,-0.876 0.056,-1.644 -0.593,-2.275c-0.296,-0.287 -0.385,-0.521 -0.072,-0.856c0.293,-0.315 0.308,-0.851 0.028,-1.009c-0.719,-0.406 -0.667,-1.055 -0.582,-1.622c0.153,-1.029 -0.577,-1.318 -1.213,-1.715c-0.944,-0.588 -0.981,-0.716 -0.396,-1.66c0.499,-0.805 1.083,-1.546 1.724,-2.238c0.973,-1.053 1.268,-2.214 0.606,-3.525c-0.354,-0.7 -0.206,-1.393 -0.09,-2.098c0.084,-0.508 0.165,-1.016 0.256,-1.523c0.112,-0.628 -0.15,-1.042 -0.773,-1.067c-0.468,-0.019 -0.513,-0.216 -0.47,-0.576c0.194,-1.592 0.701,-3.062 1.706,-4.331c0.434,-0.55 0.981,-0.963 1.665,-1.156c6.572,-1.851 12.851,-1.348 18.72,2.355c1.169,0.737 2.166,1.683 3.093,2.704c0.298,0.328 0.393,0.585 0.149,1.042c-0.859,1.61 -1.386,3.322 -1.256,5.178c0.034,0.498 -0.181,0.87 -0.491,1.231c-0.837,0.974 -1.788,1.852 -2.463,2.962c-0.955,1.57 -0.72,2.556 0.857,3.45c0.297,0.168 0.617,0.296 0.926,0.444c0.152,0.073 0.319,0.118 0.239,0.365c-0.189,0.586 0.074,1.228 -0.046,1.756c-0.219,0.963 0.052,1.868 0.055,2.794c0.007,1.891 1.421,3.116 3.52,3.219c0.221,0.011 0.453,-0.101 0.704,0.169" style="fill:#00205b;fill-rule:nonzero;"/><path d="M192.347,118.296c0.535,-1.021 1.097,-1.942 1.557,-2.921c1.005,-2.139 0.934,-4.145 -0.449,-6.115c-0.809,-1.151 -1.314,-2.455 -1.618,-3.843c-0.269,-1.235 -1.676,-1.72 -3,-1.058c-0.818,0.408 -1.602,0.885 -2.569,0.821c-0.619,-0.041 -1.143,-0.028 -0.817,-0.978c0.212,-0.616 0.198,-1.379 -0.368,-1.923c-0.171,-0.165 -0.216,-0.277 -0.128,-0.502c0.152,-0.391 -0.001,-0.721 -0.296,-0.999c-0.081,-0.076 -0.211,-0.196 -0.193,-0.265c0.276,-1.1 -0.602,-1.568 -1.204,-2.162c-0.307,-0.303 -0.284,-0.468 0.017,-0.731c1.504,-1.313 2.034,-2.986 2.027,-4.964c-0.008,-2.255 0.642,-4.366 2.195,-6.071c2.133,-2.339 4.884,-2.872 7.852,-2.309c3.635,0.689 6.555,2.686 8.471,5.783c1.371,2.215 1.9,4.824 1.668,7.5c-0.136,1.564 -0.67,3.005 -1.382,4.387c-0.131,0.255 -0.332,0.512 -0.239,0.799c0.254,0.788 0.466,1.538 0.256,2.408c-0.112,0.467 0.456,0.708 0.89,0.904c1.559,0.706 2.962,1.618 3.872,3.126c0.528,0.875 0.785,1.829 0.791,2.858c0.003,0.508 -0.192,0.692 -0.711,0.702c-2.034,0.042 -3.455,-0.969 -4.255,-3.073c-0.5,-1.316 -0.818,-2.68 -1.073,-4.057c-0.107,-0.582 -0.344,-1.066 -0.947,-1.179c-0.68,-0.127 -1.376,-0.097 -1.951,0.379c-0.325,0.27 -0.317,0.612 -0.206,1.013c0.757,2.736 1.942,5.209 3.902,7.335c1.447,1.57 2.661,3.354 4.051,5.135l-16.143,0Z" style="fill:#00205b;fill-rule:nonzero;"/><path d="M169.138,118.383c-1.802,-0 -3.606,-0.033 -5.407,0.018c-0.683,0.019 -0.766,-0.22 -0.59,-0.773c0.095,-0.299 0.105,-0.633 0.239,-0.909c1.245,-2.579 0.639,-5.155 -0.114,-7.672c-0.699,-2.34 -0.364,-2.073 -2.748,-2.183c-1.288,-0.059 -2.571,-0.211 -3.757,-0.769c-0.96,-0.452 -1.076,-0.788 -0.754,-1.808c0.1,-0.319 0.242,-0.666 -0.027,-0.977c-0.241,-0.278 -0.061,-0.547 -0.063,-0.83c-0.004,-0.787 0.138,-1.514 0.314,-2.273c0.112,-0.486 -0.365,-0.889 -0.902,-1.089c-0.691,-0.258 -0.712,-0.616 -0.108,-1.061c1.549,-1.141 2.337,-2.67 2.687,-4.589c0.893,-4.892 5.365,-8.07 10.31,-7.494c5.173,0.603 8.582,3.435 9.793,8.014c0.628,2.376 -0.037,4.387 -1.42,6.272c-0.878,1.198 -1.991,2.199 -2.809,3.453c-1.384,2.121 -1.641,4.412 -1.114,6.816c0.391,1.785 0.895,3.545 1.329,5.322c0.126,0.517 0.284,0.979 0.785,1.26c0.231,0.129 0.323,0.382 0.439,0.616c0.238,0.479 0.133,0.666 -0.418,0.662c-1.888,-0.016 -3.777,-0.006 -5.665,-0.006" style="fill:#00205b;fill-rule:nonzero;"/><path d="M165.351,61.519c0.183,0.415 0.322,0.816 0.675,1.093c0.642,0.503 0.32,0.773 -0.258,0.983c-1.854,0.673 -3.704,1.356 -5.557,2.034c-1.423,0.52 -2.854,1.021 -4.266,1.568c-0.548,0.212 -0.774,0.161 -0.772,-0.491c0.013,-4.437 0.004,-8.873 0.001,-13.309c0,-0.352 0.038,-0.662 0.368,-0.903c4.686,-3.421 9.366,-6.852 14.051,-10.284c0.309,0.263 0.174,0.572 0.175,0.831c0.013,3.119 0.009,6.238 0.005,9.359c-0.001,0.359 0.076,0.729 -0.369,0.956c-2.485,1.268 -3.423,3.567 -3.953,6.098c-0.096,0.458 -0.241,0.672 -0.685,0.817c-2.607,0.857 -4.486,-0.693 -4.264,-3.58c0.238,-3.081 1.631,-5.612 3.814,-7.742c0.199,-0.195 0.525,-0.312 0.29,-0.669c-0.21,-0.319 -0.457,-0.21 -0.743,-0.069c-3.698,1.836 -6.631,6.888 -6.388,11.026c0.195,3.307 2.853,4.895 5.875,3.517c0.704,-0.322 1.328,-0.769 2.001,-1.235" style="fill:#00205b;fill-rule:nonzero;"/><path d="M155.176,76.553c-0,-2.174 0.02,-4.35 -0.013,-6.524c-0.009,-0.595 0.201,-0.841 0.76,-1.018c3.188,-1.011 6.361,-2.07 9.546,-3.09c0.304,-0.097 0.659,-0.503 0.981,-0.051c0.329,0.461 0.524,0.988 0.175,1.516c-0.329,0.499 -0.723,0.955 -1.093,1.427c-0.652,0.831 -1.337,1.636 -1.681,2.666c-0.333,0.993 -0.101,1.779 0.759,2.379c0.117,0.081 0.242,0.155 0.372,0.212c0.613,0.268 0.837,0.619 0.846,1.391c0.016,1.334 -0.105,2.795 1.068,3.855c0.206,0.187 0.105,0.482 0.078,0.739c-0.166,1.601 0.392,2.384 1.964,2.791c0.393,0.102 0.843,0.078 0.853,0.729c0.012,0.72 -0.088,0.927 -0.936,0.874c-2.91,-0.18 -5.831,-0.196 -8.747,-0.286c-1.402,-0.044 -2.802,-0.14 -4.204,-0.158c-0.568,-0.007 -0.739,-0.207 -0.734,-0.755c0.021,-2.231 0.009,-4.464 0.009,-6.697l-0.003,0Z" style="fill:#00205b;fill-rule:nonzero;"/><path d="M94.524,118.691c1.243,-1.229 2.236,-2.061 3.974,-2.055c20.578,0.073 41.156,0.048 61.734,0.048l0.086,0c1.462,0.002 1.451,0.014 1.03,1.422c-0.142,0.477 -0.422,0.533 -0.823,0.536c-1.402,0.009 -2.804,0.049 -4.206,0.05c-20.234,0.002 -40.469,-0 -60.703,-0.001l-1.092,-0" style="fill:#fe4001;fill-rule:nonzero;"/><path d="M145.504,28.712c-2.978,0.872 -5.799,2.021 -9,1.992c-13.964,-0.124 -27.93,-0.052 -41.895,-0.051c-1.223,0 -1.224,0.002 -1.224,1.208c0,4.864 0,9.728 0.001,14.592c0,0.986 -0.668,1.71 -1.618,1.78c-0.289,0.021 -0.349,-0.139 -0.361,-0.354c-0.016,-0.285 -0.014,-0.572 -0.014,-0.858c-0.008,-5.78 -0.009,-11.559 -0.028,-17.339c-0.002,-0.664 0.094,-1.025 0.925,-1.024c17.542,0.026 35.085,0.021 52.627,0.024c0.196,0 0.391,0.019 0.587,0.03" style="fill:#fe4001;fill-rule:nonzero;"/><path d="M155.368,95.706c-0.215,-0.133 -0.185,-0.286 -0.185,-0.419c-0.004,-2.947 0.002,-5.895 -0.014,-8.842c-0.002,-0.517 0.139,-0.695 0.695,-0.638c1.587,0.164 3.18,0.264 4.93,0.402c-0.634,0.587 -1.163,1.048 -1.66,1.543c-1.57,1.564 -2.481,3.47 -2.866,5.64c-0.148,0.831 -0.297,1.661 -0.9,2.314" style="fill:#00205b;fill-rule:nonzero;"/><path d="M160.398,62.378c-1.352,-0.438 -2.105,-1.516 -2.207,-3.123c-0.133,-2.098 0.522,-3.997 1.506,-5.795c0.457,-0.834 0.939,-1.673 1.738,-2.27c-0.445,1.199 -1.121,2.298 -1.38,3.553c-0.302,1.465 -0.495,2.943 0.14,4.365c0.676,1.512 1.868,2.252 3.542,2.174c0.131,-0.006 0.278,-0.081 0.421,0.111c-0.598,0.494 -1.264,0.831 -2.027,0.98c-0.577,0.229 -1.155,0.22 -1.733,0.005" style="fill:#fee100;fill-rule:nonzero;"/><path d="M102.522,38.142c22.707,-0.002 45.414,-0.005 68.122,-0.005c0.368,-0 0.747,-0.048 1.089,0.154c-0.023,0.035 -0.056,0.051 -0.097,0.05c-0.829,-0.011 -1.658,-0.03 -2.486,-0.03c-21.733,-0.002 -43.465,-0.001 -65.198,-0.005c-0.48,-0 -0.977,0.091 -1.43,-0.164" style="fill:#191919;fill-rule:nonzero;"/><path d="M160.398,62.378c0.578,-0.002 1.155,-0.004 1.733,-0.005c-0.576,0.457 -1.154,0.458 -1.733,0.005" style="fill:#d7d7d7;fill-rule:nonzero;"/><path d="M128.274,94.114c-0.212,0.279 -0.135,0.605 -0.135,0.913c-0.002,4.52 -0.007,9.04 0.016,13.56c0.004,0.623 -0.114,0.948 -0.829,0.94c-2.718,-0.028 -5.437,-0.011 -8.155,-0.018c-0.306,-0.001 -0.642,0.049 -0.856,-0.268c-0.359,-0.272 -0.411,-0.658 -0.415,-1.071c-0.009,-0.971 0.01,-1.941 -0.012,-2.911c-0.008,-0.327 0.055,-0.791 -0.417,-0.803c-0.466,-0.013 -0.56,0.433 -0.589,0.809c-0.065,0.854 -0.004,1.711 -0.036,2.567c-0.013,0.358 0.084,0.757 -0.27,1.03c-0.095,0.5 -0.398,0.669 -0.899,0.666c-2.757,-0.017 -5.514,-0.009 -8.27,-0.014c-0.283,-0.001 -0.578,0.004 -0.768,-0.272c-0.453,-0.714 -1.02,-0.807 -1.794,-0.468c-0.61,0.268 -1.304,0.308 -1.982,0.306c-2.06,0.501 -2.062,0.5 -2.062,-1.657c-0.001,-22.723 -0.001,-45.447 -0.002,-68.172c-0,-0.143 0.013,-0.287 -0,-0.429c-0.066,-0.755 0.275,-0.84 0.863,-0.532c5.674,3.592 11.342,7.191 17.03,10.759c0.534,0.336 0.708,0.696 0.707,1.307c-0.012,14.011 0.005,28.022 -0.025,42.032c-0.002,0.909 0.303,1.237 1.139,1.413c2.232,0.47 4.438,0.508 6.579,-0.337c0.784,-0.31 1.167,-0.26 1.182,0.65" style="fill:#fdfdfd;fill-rule:nonzero;"/><path d="M151.968,108.87c-0.104,0.491 -0.403,0.662 -0.905,0.659c-2.728,-0.02 -5.456,-0.011 -8.184,-0.02c-0.305,-0.001 -0.638,0.029 -0.858,-0.267c0.013,-7.929 0.026,-15.857 0.038,-23.785c0.002,-1.403 0.007,-2.805 -0.012,-4.207c-0.008,-0.541 0.065,-0.784 0.715,-0.558c2.88,1.002 5.768,1.11 8.634,-0.079c0.401,-0.167 0.513,-0.023 0.498,0.366c-0.017,0.455 -0.008,0.91 -0.008,1.365c-0,8.501 -0.001,17.001 0.003,25.503c0.001,0.341 0.052,0.682 0.079,1.023" style="fill:#fdfdfd;fill-rule:nonzero;"/><path d="M140.114,108.869c-0.108,0.418 -0.308,0.674 -0.807,0.67c-2.762,-0.023 -5.524,-0.017 -8.286,-0.031c-0.303,-0.001 -0.641,0.047 -0.854,-0.267c0.01,-7.122 0.019,-14.242 0.029,-21.364c0.001,-0.257 0.007,-0.514 0.003,-0.772c-0.006,-0.333 0.103,-0.48 0.463,-0.349c3.1,1.129 6.193,1.205 9.265,-0.145c0.225,0.629 0.108,1.197 0.108,1.76c-0.002,6.549 -0.003,13.099 0.001,19.648c0.001,0.283 0.051,0.567 0.078,0.85" style="fill:#fdfdfd;fill-rule:nonzero;"/><path d="M146.973,81.134c-0.765,-1.74 -1.683,-3.166 -2.17,-4.793c-0.521,-1.741 -0.322,-3.427 0.424,-5.055c0.452,-0.987 0.949,-1.953 1.44,-2.92c0.112,-0.221 0.283,-0.682 0.541,-0.142c0.864,1.815 2.03,3.509 2.213,5.604c0.099,1.14 -0.081,2.236 -0.506,3.262c-0.544,1.308 -1.222,2.56 -1.942,4.044" style="fill:#fcfcfc;fill-rule:nonzero;"/><path d="M135.099,73.629c3.409,5.849 3.233,7.595 0.026,12.956c-2.894,-4.92 -3.66,-6.664 -0.026,-12.956" style="fill:#fcfcfc;fill-rule:nonzero;"/><path d="M123.22,93.514c-3.139,-5.599 -3.328,-7.016 -0.016,-12.951c3.184,3.537 3.208,9.023 0.016,12.951" style="fill:#fbfbfb;fill-rule:nonzero;"/><path d="M116.575,108.862c-0.167,-1.445 -0.051,-2.895 -0.066,-4.344c-0.004,-0.372 1.399,-1.124 1.705,-0.939c0.21,0.127 0.129,0.358 0.129,0.543c-0.004,1.707 -0.018,3.413 -0.029,5.119c-0.586,-0.096 -1.279,0.297 -1.739,-0.379" style="fill:#00205b;fill-rule:nonzero;"/><path d="M102.863,109.08c1.018,-0.377 2.049,-0.722 3.048,-1.143c0.625,-0.263 0.831,-0.115 0.761,0.535c-0.028,0.255 -0.023,0.514 -0.033,0.771c-1.258,-0.072 -2.53,0.188 -3.776,-0.163" style="fill:#00205b;fill-rule:nonzero;"/><path d="M159.019,73.082c0.421,1.03 1.046,0.409 1.725,0.157c0.286,-0.106 0.419,0.342 0.307,0.635c-0.254,0.661 -0.379,1.223 0.431,1.639c0.312,0.161 0.27,0.616 -0.123,0.717c-0.739,0.189 -1.045,0.604 -0.957,1.348c0.029,0.243 -0.047,0.466 -0.294,0.558c-0.266,0.099 -0.447,-0.069 -0.557,-0.278c-0.261,-0.501 -0.578,-0.56 -0.975,-0.16c-0.16,0.161 -0.341,0.222 -0.533,0.09c-0.219,-0.148 -0.245,-0.37 -0.16,-0.609c0.215,-0.6 0.296,-1.1 -0.427,-1.505c-0.368,-0.207 -0.018,-0.624 0.259,-0.707c0.673,-0.201 0.748,-0.694 0.769,-1.257c0.012,-0.291 0.009,-0.599 0.535,-0.628" style="fill:#f9f9f9;fill-rule:nonzero;"/><path d="M102.901,74.006c-0.001,-3.033 0.016,-6.067 -0.013,-9.099c-0.006,-0.702 0.066,-0.959 0.886,-0.723c4.421,1.275 8.857,2.501 13.3,3.703c0.631,0.171 0.784,0.461 0.782,1.069c-0.02,4.721 -0.024,9.443 0.011,14.164c0.006,0.735 -0.245,0.91 -0.926,0.914c-4.379,0.022 -8.758,0.065 -13.136,0.138c-0.7,0.012 -0.93,-0.161 -0.921,-0.895c0.041,-3.09 0.018,-6.181 0.017,-9.271" style="fill:#00205b;fill-rule:nonzero;"/><path d="M102.917,51.537c-0,-3.087 0.013,-6.176 -0.01,-9.263c-0.005,-0.696 0.081,-0.876 0.769,-0.458c4.493,2.727 9.003,5.427 13.518,8.117c0.469,0.279 0.674,0.58 0.671,1.149c-0.023,4.746 -0.022,9.492 -0,14.239c0.003,0.701 -0.142,0.874 -0.866,0.644c-4.436,-1.41 -8.884,-2.787 -13.337,-4.143c-0.62,-0.188 -0.764,-0.511 -0.759,-1.108c0.025,-3.059 0.011,-6.117 0.011,-9.177l0.003,0Z" style="fill:#00205b;fill-rule:nonzero;"/><path d="M111.584,98.433c1.316,-2.582 2.889,-4.919 2.383,-7.888c-0.213,-1.251 -0.849,-2.347 -1.404,-3.47c-0.433,-0.877 -0.42,-0.906 0.581,-0.957c1.315,-0.068 2.632,-0.098 3.944,-0.187c0.538,-0.037 0.771,0.076 0.769,0.675c-0.017,4.864 -0.023,9.728 0.009,14.592c0.005,0.827 -0.589,0.809 -1.07,0.931c-0.354,0.089 -0.288,-0.274 -0.286,-0.476c0.005,-0.943 0.038,-1.885 0.046,-2.827c0.007,-0.933 -0.081,-1.003 -0.944,-0.676c-2.601,0.986 -5.207,0.912 -7.82,0.066c-1.137,-0.368 -1.131,-0.373 -1.128,0.832c0.005,1.916 -0.016,3.834 0.019,5.75c0.01,0.556 -0.181,0.825 -0.706,0.973c-0.798,0.223 -1.588,0.482 -2.364,0.772c-0.516,0.193 -0.719,0.12 -0.718,-0.48c0.013,-6.296 0.009,-12.59 0.002,-18.885c-0.001,-0.409 0.094,-0.626 0.565,-0.643c2.288,-0.082 4.575,-0.18 6.861,-0.306c0.684,-0.038 0.617,0.22 0.389,0.677c-0.696,1.398 -1.461,2.754 -1.56,4.387c-0.069,1.144 0.101,2.241 0.504,3.259c0.51,1.287 1.226,2.492 1.928,3.881" style="fill:#00205b;fill-rule:nonzero;"/><path d="M119.699,101.522c0,-1.916 0.007,-3.834 -0.005,-5.75c-0.003,-0.551 0.143,-0.783 0.761,-0.633c1.773,0.429 3.574,0.422 5.359,0.106c0.748,-0.133 1.073,0.018 1.07,0.82c-0.016,3.719 -0.018,7.438 0.002,11.157c0.004,0.708 -0.289,0.98 -0.969,0.974c-1.774,-0.013 -3.548,-0.016 -5.322,0c-0.655,0.006 -0.915,-0.256 -0.905,-0.923c0.027,-1.916 0.009,-3.834 0.009,-5.751" style="fill:#fee100;fill-rule:nonzero;"/><path d="M108.023,103.901c-0.001,-1.086 0.021,-2.172 -0.008,-3.257c-0.019,-0.699 0.242,-0.928 0.929,-0.762c1.833,0.443 3.676,0.419 5.511,0.02c0.543,-0.119 0.746,0.059 0.745,0.586c-0.005,2.314 -0.007,4.628 -0.001,6.942c0.001,0.507 -0.262,0.742 -0.735,0.744c-1.915,0.008 -3.829,0.003 -5.743,0.003c-0.576,0 -0.707,-0.35 -0.701,-0.848c0.012,-1.142 0.004,-2.285 0.003,-3.428" style="fill:#fee100;fill-rule:nonzero;"/><path d="M112.669,91.799c-0.054,1.125 -0.325,2.08 -0.757,2.993c-0.179,0.379 -0.366,0.531 -0.612,0.053c-1.027,-1.992 -1.071,-3.991 -0.043,-5.996c0.233,-0.454 0.448,-0.437 0.686,0.006c0.513,0.956 0.674,1.991 0.726,2.944" style="fill:#fee100;fill-rule:nonzero;"/><path d="M143.407,95.247c0,-3.917 -0.002,-7.834 0.001,-11.753c0.001,-1.046 0.01,-1.064 1.061,-0.898c1.68,0.266 3.354,0.267 5.038,0.02c1.061,-0.155 1.077,-0.125 1.078,1.002c0.004,3.833 0.002,7.664 0.002,11.495c0,3.975 -0.019,7.95 0.015,11.924c0.007,0.857 -0.289,1.186 -1.137,1.168c-1.658,-0.034 -3.318,-0.032 -4.976,-0.007c-0.799,0.012 -1.104,-0.282 -1.097,-1.113c0.034,-3.945 0.015,-7.892 0.015,-11.838" style="fill:#fee100;fill-rule:nonzero;"/><path d="M138.615,98.421c-0.001,2.89 -0.022,5.779 0.013,8.669c0.01,0.793 -0.205,1.141 -1.056,1.116c-1.687,-0.049 -3.376,-0.032 -5.064,-0.008c-0.699,0.01 -0.963,-0.273 -0.962,-0.969c0.015,-5.922 0.016,-11.844 0.002,-17.766c-0.002,-0.789 0.243,-0.966 1.033,-0.776c1.687,0.406 3.414,0.347 5.111,0.05c0.807,-0.141 0.935,0.168 0.931,0.844c-0.017,2.947 -0.007,5.894 -0.008,8.84" style="fill:#fee100;fill-rule:nonzero;"/><path d="M148.061,74.429c-0.05,0.973 -0.239,1.914 -0.683,2.793c-0.086,0.171 -0.137,0.415 -0.364,0.435c-0.237,0.02 -0.32,-0.22 -0.403,-0.387c-0.967,-1.943 -0.963,-3.881 0.045,-5.814c0.236,-0.453 0.427,-0.472 0.655,0.011c0.442,0.939 0.698,1.921 0.75,2.962" style="fill:#fee100;fill-rule:nonzero;"/><path d="M134.115,80.109c-0.096,-1.013 0.217,-1.92 0.646,-2.799c0.083,-0.169 0.116,-0.416 0.381,-0.39c0.192,0.018 0.261,0.202 0.337,0.352c1.002,1.973 0.93,3.944 -0.039,5.903c-0.221,0.447 -0.447,0.353 -0.638,-0.044c-0.463,-0.959 -0.809,-1.944 -0.687,-3.022" style="fill:#fee100;fill-rule:nonzero;"/><path d="M122.113,86.817c0.065,-0.85 0.356,-1.766 0.784,-2.643c0.23,-0.471 0.486,-0.533 0.74,-0.004c0.926,1.928 0.893,3.854 -0.017,5.774c-0.079,0.167 -0.136,0.455 -0.37,0.399c-0.154,-0.037 -0.303,-0.256 -0.378,-0.428c-0.416,-0.944 -0.731,-1.918 -0.759,-3.098" style="fill:#fee100;fill-rule:nonzero;"/><path d="M160.414,75.645c-0.468,0.196 -0.438,0.84 -0.916,0.861c-0.581,0.024 -0.805,-0.521 -0.794,-0.916c0.011,-0.367 0.403,-0.789 0.836,-0.805c0.513,-0.02 0.411,0.687 0.874,0.86" style="fill:#fee100;fill-rule:nonzero;"/><path d="M105.538,69.486c0.117,0.088 0.263,0.177 0.382,0.293c0.329,0.32 0.614,0.371 0.877,-0.079c0.118,-0.202 0.287,-0.383 0.555,-0.295c0.303,0.1 0.33,0.371 0.315,0.633c-0.037,0.605 0.133,1.035 0.785,1.228c0.471,0.14 0.471,0.541 0.108,0.762c-0.584,0.356 -0.526,0.8 -0.354,1.315c0.094,0.28 0.177,0.556 -0.138,0.759c-0.259,0.169 -0.431,-0.012 -0.594,-0.165c-0.328,-0.312 -0.575,-0.262 -0.823,0.11c-0.13,0.196 -0.25,0.481 -0.587,0.391c-0.339,-0.089 -0.308,-0.375 -0.308,-0.624c0.002,-0.629 -0.186,-1.079 -0.875,-1.261c-0.45,-0.119 -0.647,-0.485 -0.157,-0.784c0.626,-0.381 0.651,-0.842 0.409,-1.439c-0.155,-0.381 -0.172,-0.739 0.405,-0.844" style="fill:#f9f9f9;fill-rule:nonzero;"/><path d="M113.57,78.407c0.356,-0.074 0.451,0.083 0.569,0.204c0.277,0.284 0.525,0.319 0.731,-0.08c0.124,-0.24 0.339,-0.312 0.573,-0.208c0.233,0.104 0.294,0.322 0.274,0.572c-0.042,0.503 0.091,0.87 0.657,1.022c0.412,0.111 0.46,0.507 0.148,0.718c-0.487,0.328 -0.534,0.687 -0.334,1.168c0.108,0.258 0.118,0.509 -0.147,0.684c-0.25,0.164 -0.424,0.004 -0.596,-0.159c-0.302,-0.287 -0.52,-0.123 -0.673,0.159c-0.125,0.229 -0.278,0.371 -0.541,0.292c-0.301,-0.09 -0.357,-0.331 -0.327,-0.613c0.055,-0.526 -0.166,-0.832 -0.677,-1.025c-0.366,-0.139 -0.697,-0.466 -0.157,-0.799c0.509,-0.314 0.507,-0.688 0.32,-1.165c-0.139,-0.355 -0.129,-0.676 0.18,-0.77" style="fill:#f9f9f9;fill-rule:nonzero;"/><path d="M115.456,59.856c-0.177,-0.026 -0.431,-0.063 -0.686,-0.101c-1.161,-0.175 -1.157,-0.175 -1.257,1.047c-0.038,0.457 -0.101,0.91 -0.14,1.366c-0.021,0.246 -0.095,0.465 -0.347,0.533c-0.285,0.076 -0.4,-0.16 -0.512,-0.359c-0.406,-0.723 -0.834,-1.435 -1.199,-2.178c-0.248,-0.504 -0.535,-0.75 -1.131,-0.597c-0.467,0.12 -0.961,0.146 -1.445,0.19c-0.726,0.067 -0.995,-0.194 -0.661,-0.793c1.033,-1.854 0.646,-3.382 -0.865,-4.748c-0.251,-0.227 -0.414,-0.548 -0.645,-0.801c-0.17,-0.186 -0.302,-0.35 -0.118,-0.592c0.163,-0.213 0.362,-0.224 0.61,-0.147c0.382,0.117 0.776,0.195 1.164,0.292c1.295,0.324 1.299,0.324 1.447,-0.961c0.053,-0.455 0.102,-0.912 0.11,-1.368c0.005,-0.29 0.069,-0.531 0.358,-0.599c0.318,-0.075 0.44,0.199 0.56,0.426c0.387,0.733 0.824,1.447 1.135,2.212c0.308,0.756 0.775,0.969 1.571,0.919c1.747,-0.11 1.814,-0.043 1.196,1.582c-0.389,1.02 -0.346,1.83 0.434,2.623c0.377,0.382 0.637,0.879 0.973,1.306c0.148,0.189 0.317,0.344 0.134,0.592c-0.156,0.21 -0.367,0.257 -0.686,0.156" style="fill:#fafafa;fill-rule:nonzero;"/><path d="M113.883,54.971c0.052,-0.57 -0.348,-0.501 -0.715,-0.537c-0.468,-0.046 -1.026,0.245 -1.369,-0.327c0.567,0.19 1.136,-0.043 1.705,0.01c0.644,0.06 0.873,0.294 0.379,0.854" style="fill:#e0e0e0;fill-rule:nonzero;"/><path d="M107.563,71.799c-0.299,0.381 -0.37,0.965 -0.911,0.881c-0.36,-0.056 -0.839,-0.399 -0.783,-0.731c0.055,-0.33 0.144,-0.92 0.698,-0.951c0.561,-0.031 0.577,0.623 0.996,0.801" style="fill:#fee100;fill-rule:nonzero;"/><path d="M114.758,79.888c0.313,0.087 0.659,0.242 0.622,0.582c-0.029,0.256 -0.091,0.697 -0.493,0.704c-0.369,0.007 -0.66,-0.264 -0.685,-0.624c-0.021,-0.316 0.183,-0.589 0.556,-0.662" style="fill:#fee100;fill-rule:nonzero;"/><path d="M113.883,54.971c-0.655,1.273 -0.286,2.347 0.616,3.341c0.186,0.205 0.499,0.549 -0.162,0.604c-0.462,0.038 -1.023,-0.343 -1.369,0.153c-0.282,0.404 -0.099,0.95 -0.17,1.428c-0.012,0.082 -0.048,0.161 -0.098,0.316c-0.533,-0.338 -0.692,-0.896 -0.947,-1.367c-0.309,-0.571 -0.67,-0.902 -1.366,-0.632c-0.231,0.09 -0.507,0.071 -0.764,0.084c-0.451,0.024 -0.627,-0.206 -0.55,-0.64c0.02,-0.112 0.039,-0.234 0.097,-0.327c0.775,-1.248 0.341,-2.245 -0.629,-3.143c-0.104,-0.095 -0.185,-0.219 -0.263,-0.337c-0.119,-0.179 -0.379,-0.348 -0.185,-0.587c0.141,-0.173 0.387,-0.089 0.566,-0.017c1.529,0.627 1.58,0.099 1.745,-1.288c0.022,-0.186 -0.056,-0.403 0.17,-0.579c0.543,0.637 0.76,1.456 1.225,2.127c0.528,0.502 1.149,0.095 1.722,0.16c0.575,0.064 0.617,0.276 0.362,0.704" style="fill:#fee100;fill-rule:nonzero;"/></g></g></svg>