<?xml version="1.0" encoding="UTF-8" standalone="no"?><!DOCTYPE svg PUBLIC "-//W3C//DTD SVG 1.1//EN" "http://www.w3.org/Graphics/SVG/1.1/DTD/svg11.dtd"><svg width="100%" height="100%" viewBox="0 0 307 86" version="1.1" xmlns="http://www.w3.org/2000/svg" xmlns:xlink="http://www.w3.org/1999/xlink" xml:space="preserve" xmlns:serif="http://www.serif.com/" style="fill-rule:evenodd;clip-rule:evenodd;stroke-linejoin:round;stroke-miterlimit:2;"><g id="Vordergrund"><path d="M263.611,38.939l-34.464,0l0,-34.464l34.464,0l0,34.464Z" style="fill:#004772;fill-rule:nonzero;"/><path d="M306.285,9.029c0,4.986 -4.041,9.028 -9.028,9.028c-2.492,0 -4.749,-1.012 -6.384,-2.645c-1.634,-1.633 -2.644,-3.891 -2.644,-6.383c0,-2.494 1.01,-4.751 2.644,-6.385c1.635,-1.634 3.892,-2.644 6.384,-2.644c2.493,0 4.75,1.01 6.383,2.644c1.637,1.634 2.645,3.891 2.645,6.385" style="fill:#f3b223;fill-rule:nonzero;"/><path d="M306.091,80.636l-34.464,-0l0,-34.464l34.464,-0l0,34.464Z" style="fill:#004772;fill-rule:nonzero;"/><path d="M263.61,46.176l0.001,17.233l0,17.231l-34.464,0l0,-34.463l17.233,0l17.23,-0.001Z" style="fill:#004772;fill-rule:nonzero;"/><path d="M290.04,57.623l-17.319,1.82l-17.32,1.821l-1.82,-17.319l-1.821,-17.319l17.321,-1.821l17.318,-1.82l1.821,17.32l1.82,17.318Z" style="fill:#f3b223;fill-rule:nonzero;"/><path d="M-0.006,37.658l1.601,0l0,-6.939l0.041,-0l5.379,6.939l1.889,0l-5.728,-7.37l5.297,-6.796l-1.869,-0l-4.968,6.426l-0.041,0l0,-6.426l-1.601,0l0,14.166Z" style="fill:#004772;"/><path d="M14.991,33.223c0,1.17 -0.123,1.396 -0.37,1.971c-0.41,0.944 -1.396,1.519 -2.278,1.519c-0.719,0 -1.376,-0.493 -1.376,-1.416c0,-1.663 2.176,-2.074 3.203,-2.074l0.821,0Zm0.041,4.435l1.355,0l0,-6.857c0,-1.232 -0.247,-3.141 -3.285,-3.141c-2.669,0 -3.49,1.499 -3.51,2.73l1.56,0c0.103,-0.759 0.411,-1.56 1.991,-1.56c0.739,0 1.56,0.267 1.787,1.355c0.061,0.328 0.061,1.396 0.061,1.868c-0.329,0.062 -0.616,0.062 -0.965,0.062c-1.704,0 -4.66,0.759 -4.66,3.038c0,1.745 1.026,2.73 2.628,2.73c1.786,0 2.75,-1.047 2.997,-1.519l0.041,0l0,1.294Z" style="fill:#004772;"/><path d="M24.268,36.529c-0.308,0.102 -0.492,0.184 -0.944,0.184c-1.437,0 -1.601,-1.005 -1.601,-1.642l-0,-6.015l2.628,0l-0,-1.17l-2.628,0l-0,-3.162l-1.396,0.883l-0,2.279l-1.602,0l-0,1.17l1.602,0l-0,6.302c-0,1.746 0.738,2.525 2.709,2.525c0.411,0 0.822,-0.04 1.232,-0.102l-0,-1.252Z" style="fill:#004772;"/><path d="M26.478,37.658l1.396,0l0,-4.024c0,-1.765 0.924,-4.578 2.772,-4.578c1.437,-0 1.437,1.499 1.437,3.182l0,5.42l1.396,0l0,-6.98c0,-1.622 -0.842,-3.018 -2.505,-3.018c-2.176,0 -2.792,1.684 -3.059,2.484l-0.041,0l0,-6.652l-1.396,0l0,14.166Z" style="fill:#004772;"/><path d="M37.646,32.772c-0,-2.443 0.801,-3.941 2.381,-3.941c1.601,-0 2.423,1.498 2.423,3.941c-0,2.464 -0.822,3.942 -2.423,3.942c-1.58,-0 -2.381,-1.478 -2.381,-3.942m2.381,5.112c2.895,-0 4.024,-2.238 4.024,-5.092c-0,-2.853 -1.129,-5.132 -4.024,-5.132c-2.874,-0 -3.982,2.279 -3.982,5.132c-0,2.854 1.108,5.092 3.982,5.092" style="fill:#004772;"/><rect x="46.735" y="23.492" width="1.396" height="14.166" style="fill:#004772;"/><path d="M51.454,25.34l1.848,-0l0,-1.848l-1.848,-0l0,1.848Zm0.226,12.318l1.396,-0l0,-9.772l-1.396,-0l0,9.772Z" style="fill:#004772;"/><path d="M58.821,31.643c-0.78,-0.411 -1.766,-0.739 -1.766,-1.54c0,-0.697 0.781,-1.273 1.971,-1.273c0.986,-0 1.951,0.329 2.279,0.452l0,-1.293c-0.451,-0.103 -1.252,-0.329 -2.299,-0.329c-2.176,-0 -3.346,1.006 -3.346,2.587c0,1.601 1.313,2.135 2.217,2.649l0.883,0.472c0.575,0.328 1.765,0.759 1.765,1.765c0,1.129 -1.026,1.581 -2.381,1.581c-1.109,-0 -2.279,-0.431 -2.525,-0.513l0,1.273c0.389,0.123 1.395,0.41 2.669,0.41c2.279,-0 3.633,-1.006 3.633,-2.956c0,-1.683 -1.252,-2.259 -2.278,-2.792l-0.822,-0.493Z" style="fill:#004772;"/><path d="M70.457,36.509c-0.534,0.184 -1.232,0.204 -1.581,0.204c-3.243,0 -3.88,-2.607 -3.88,-4.476c-0,-1.478 0.555,-3.407 2.32,-3.407c1.314,0 1.745,0.985 1.745,2.032l1.663,0c-0,-1.56 -0.739,-3.202 -3.346,-3.202c-2.813,0 -3.983,1.95 -3.983,4.886c-0,3.531 1.909,5.337 5.03,5.337c0.903,0 1.416,-0.082 2.032,-0.267l-0,-1.108Z" style="fill:#004772;"/><path d="M72.833,37.658l1.396,0l0,-4.024c0,-1.765 0.924,-4.578 2.772,-4.578c1.437,-0 1.437,1.499 1.437,3.182l0,5.42l1.396,0l0,-6.98c0,-1.622 -0.842,-3.018 -2.505,-3.018c-2.176,0 -2.792,1.684 -3.059,2.484l-0.041,0l0,-6.652l-1.396,0l0,14.166Z" style="fill:#004772;"/><path d="M84.144,30.678c0.124,-0.657 0.596,-1.848 2.053,-1.848c1.417,-0 1.868,1.191 1.868,1.848l-3.921,-0Zm5.297,5.769c-0.452,0.103 -0.841,0.267 -1.93,0.267c-2.812,-0 -3.469,-2.813 -3.469,-4.291l0,-0.575l5.625,-0l0,-0.472c0,-2.135 -1.109,-3.716 -3.408,-3.716c-2.608,-0 -3.819,1.869 -3.819,4.784c0,3.612 1.745,5.44 4.763,5.44c0.903,0 1.643,-0.103 2.238,-0.288l0,-1.149Z" style="fill:#004772;"/><path d="M99.222,24.827l1.334,-0c1.15,-0 3.244,-0 3.244,2.607c-0,1.622 -0.842,2.566 -2.854,2.566l-1.724,-0l-0,-5.173Zm-1.602,12.831l1.602,-0l-0,-6.323l1.683,-0c2.608,-0 4.496,-1.068 4.496,-3.921c-0,-3.881 -3.387,-3.922 -4.496,-3.922l-3.285,-0l-0.001,14.166Z" style="fill:#004772;"/><path d="M107.962,37.658l1.396,0l0,-8.602l2.812,0l0,-1.17l-2.812,-0l0,-1.067c0,-1.314 0.431,-2.218 2.053,-2.218c0.595,-0 1.047,0.144 1.417,0.267l0,-1.252c-0.453,-0.103 -0.965,-0.185 -1.663,-0.185c-2.443,-0 -3.203,1.499 -3.203,3.1l0,1.355l-1.643,-0l0,1.17l1.643,-0l0,8.602Z" style="fill:#004772;"/><path d="M118.694,33.223c0,1.17 -0.123,1.396 -0.369,1.971c-0.411,0.944 -1.397,1.519 -2.279,1.519c-0.719,0 -1.376,-0.493 -1.376,-1.416c0,-1.663 2.176,-2.074 3.203,-2.074l0.821,0Zm0.041,4.435l1.355,0l0,-6.857c0,-1.232 -0.247,-3.141 -3.285,-3.141c-2.669,0 -3.49,1.499 -3.51,2.73l1.56,0c0.103,-0.759 0.411,-1.56 1.991,-1.56c0.74,0 1.561,0.267 1.786,1.355c0.062,0.328 0.062,1.396 0.062,1.868c-0.328,0.062 -0.616,0.062 -0.965,0.062c-1.703,0 -4.66,0.759 -4.66,3.038c0,1.745 1.026,2.73 2.628,2.73c1.786,0 2.751,-1.047 2.997,-1.519l0.041,0l0,1.294Z" style="fill:#004772;"/><path d="M123.352,37.658l1.395,0l-0,-4.044c-0,-2.628 1.089,-4.455 3.306,-4.455l-0,-1.499c-2.238,-0 -2.977,1.458 -3.265,2.115l-0.041,-0l-0,-1.889l-1.395,-0l-0,9.772Z" style="fill:#004772;"/><path d="M129.813,37.658l1.396,0l0,-4.044c0,-2.628 1.088,-4.455 3.305,-4.455l0,-1.499c-2.238,-0 -2.977,1.458 -3.264,2.115l-0.041,-0l0,-1.889l-1.396,-0l0,9.772Z" style="fill:#004772;"/><path d="M137.158,32.854c0,-2.094 0.554,-4.024 2.032,-4.024c1.663,0 2.3,2.238 2.3,3.757c0,1.642 -0.657,3.9 -2.341,3.9c-1.662,0 -1.991,-2.134 -1.991,-3.633m5.728,-4.968l-1.396,0l0,1.601l-0.041,0c-0.165,-0.616 -0.883,-1.827 -2.546,-1.827c-2.423,0 -3.347,2.566 -3.347,5.174c0,2.422 0.74,4.824 3.306,4.824c1.683,0 2.381,-1.212 2.587,-1.868l0.041,0l0,1.724c0,1.745 -0.432,3.244 -2.956,3.244c-1.335,0 -2.3,-0.513 -2.444,-0.575l-0,1.416c0.329,0.062 1.13,0.329 2.649,0.329c2.812,0 4.147,-1.478 4.147,-4.25l0,-9.792Z" style="fill:#004772;"/><path d="M147.192,30.678c0.123,-0.657 0.596,-1.848 2.053,-1.848c1.417,-0 1.868,1.191 1.868,1.848l-3.921,-0Zm5.297,5.769c-0.452,0.103 -0.841,0.267 -1.93,0.267c-2.812,-0 -3.47,-2.813 -3.47,-4.291l-0,-0.575l5.625,-0l-0,-0.472c-0,-2.135 -1.108,-3.716 -3.407,-3.716c-2.608,-0 -3.819,1.869 -3.819,4.784c-0,3.612 1.745,5.44 4.763,5.44c0.903,0 1.643,-0.103 2.238,-0.288l-0,-1.149Z" style="fill:#004772;"/><path d="M155.232,37.658l1.396,0l0,-4.024c0,-1.765 0.821,-4.578 2.443,-4.578c1.437,0 1.437,1.499 1.437,3.182l0,5.42l1.396,0l0,-4.024c0,-1.745 0.801,-4.578 2.444,-4.578c1.437,0 1.437,1.478 1.437,3.182l0,5.42l1.395,0l0,-6.98c0,-1.622 -0.842,-3.018 -2.504,-3.018c-1.745,0 -2.525,1.499 -2.772,2.238l-0.041,0c-0.102,-1.293 -0.821,-2.238 -2.464,-2.238c-1.95,0 -2.504,1.684 -2.73,2.484l-0.041,0l0,-2.258l-1.396,0l0,9.772Z" style="fill:#004772;"/><path d="M171.509,30.678c0.123,-0.657 0.595,-1.848 2.053,-1.848c1.417,-0 1.868,1.191 1.868,1.848l-3.921,-0Zm5.297,5.769c-0.452,0.103 -0.842,0.267 -1.93,0.267c-2.813,-0 -3.47,-2.813 -3.47,-4.291l0,-0.575l5.625,-0l0,-0.472c0,-2.135 -1.108,-3.716 -3.408,-3.716c-2.607,-0 -3.818,1.869 -3.818,4.784c0,3.612 1.745,5.44 4.763,5.44c0.903,0 1.642,-0.103 2.238,-0.288l0,-1.149Z" style="fill:#004772;"/><path d="M179.467,25.34l1.847,-0l0,-1.848l-1.847,-0l0,1.848Zm0.226,12.318l1.396,-0l0,-9.772l-1.396,-0l0,9.772Z" style="fill:#004772;"/><path d="M184.515,37.658l1.396,0l-0,-4.024c-0,-1.765 0.924,-4.578 2.772,-4.578c1.437,0 1.437,1.499 1.437,3.182l-0,5.42l1.396,0l-0,-6.98c-0,-1.622 -0.842,-3.018 -2.505,-3.018c-2.176,0 -2.792,1.684 -3.059,2.484l-0.041,0l-0,-2.258l-1.396,0l-0,9.772Z" style="fill:#004772;"/><path d="M195.662,33.121c-0,-2.074 0.411,-4.29 2.073,-4.29c1.479,-0 2.258,1.806 2.258,3.982c-0,1.684 -0.697,3.901 -2.298,3.901c-1.848,-0 -2.033,-2.34 -2.033,-3.593m4.331,4.537l1.396,-0l-0,-14.165l-1.396,-0l-0,5.995l-0.041,-0c-0.246,-0.698 -0.862,-1.828 -2.565,-1.828c-2.403,-0 -3.326,2.566 -3.326,5.194c-0,3.101 0.985,5.03 3.346,5.03c1.56,-0 2.34,-1.191 2.545,-1.888l0.041,-0l-0,1.662Z" style="fill:#004772;"/><path d="M205.696,30.678c0.123,-0.657 0.595,-1.848 2.053,-1.848c1.417,-0 1.868,1.191 1.868,1.848l-3.921,-0Zm5.297,5.769c-0.452,0.103 -0.842,0.267 -1.93,0.267c-2.813,-0 -3.47,-2.813 -3.47,-4.291l-0,-0.575l5.625,-0l-0,-0.472c-0,-2.135 -1.109,-3.716 -3.408,-3.716c-2.607,-0 -3.818,1.869 -3.818,4.784c-0,3.612 1.745,5.44 4.763,5.44c0.903,0 1.642,-0.103 2.238,-0.288l-0,-1.149Z" style="fill:#004772;"/><path d="M14.679,51.403c-1.108,-0.616 -2.361,-1.273 -2.361,-2.525c0,-1.314 1.047,-2.156 2.669,-2.156c1.519,-0 2.751,0.473 3.1,0.616l0,-1.58c-0.493,-0.103 -1.601,-0.37 -2.956,-0.37c-2.608,-0 -4.558,1.19 -4.558,3.634c0,2.155 1.745,2.935 3.059,3.675l1.252,0.697c1.171,0.657 2.361,1.253 2.361,2.854c0,1.56 -1.313,2.423 -3.059,2.423c-1.724,-0 -3.141,-0.617 -3.449,-0.74l0,1.643c0.37,0.082 1.745,0.431 3.264,0.431c2.649,-0 4.989,-1.027 4.989,-3.983c0,-2.238 -1.56,-3.1 -2.997,-3.901l-1.314,-0.718Z" style="fill:#004772;"/><path d="M25.904,58.65c-0.308,0.103 -0.493,0.185 -0.944,0.185c-1.437,-0 -1.602,-1.006 -1.602,-1.643l-0,-6.015l2.628,-0l-0,-1.17l-2.628,-0l-0,-3.162l-1.395,0.883l-0,2.279l-1.602,-0l-0,1.17l1.602,-0l-0,6.303c-0,1.745 0.738,2.525 2.709,2.525c0.411,-0 0.821,-0.041 1.232,-0.103l-0,-1.252Z" style="fill:#004772;"/><rect x="27.539" y="57.726" width="2.053" height="2.053" style="fill:#004772;"/><path d="M37.712,59.779l1.437,-0l-0,-12.461l0.041,-0l4.168,12.461l1.58,-0l4.167,-12.461l0.041,-0l-0,12.461l1.438,-0l-0,-14.165l-2.382,-0l-4.024,12.051l-0.041,-0l-4.024,-12.051l-2.401,-0l-0,14.165Z" style="fill:#004772;"/><path d="M58.792,55.344c-0,1.17 -0.123,1.396 -0.37,1.971c-0.41,0.945 -1.396,1.519 -2.279,1.519c-0.718,0 -1.375,-0.492 -1.375,-1.416c-0,-1.663 2.176,-2.074 3.203,-2.074l0.821,0Zm0.041,4.435l1.355,0l-0,-6.857c-0,-1.232 -0.247,-3.141 -3.285,-3.141c-2.669,0 -3.49,1.499 -3.511,2.73l1.561,0c0.103,-0.76 0.411,-1.56 1.991,-1.56c0.739,0 1.561,0.267 1.786,1.355c0.062,0.328 0.062,1.396 0.062,1.868c-0.328,0.062 -0.616,0.062 -0.965,0.062c-1.704,0 -4.66,0.759 -4.66,3.038c-0,1.745 1.026,2.731 2.627,2.731c1.787,0 2.752,-1.048 2.998,-1.52l0.041,0l-0,1.294Z" style="fill:#004772;"/><path d="M63.45,59.779l1.395,-0l-0,-4.044c-0,-2.628 1.089,-4.455 3.306,-4.455l-0,-1.499c-2.238,-0 -2.977,1.458 -3.265,2.115l-0.041,-0l-0,-1.889l-1.395,-0l-0,9.772Z" style="fill:#004772;"/><path d="M69.808,47.461l1.848,-0l0,-1.848l-1.848,-0l0,1.848Zm0.226,12.318l1.396,-0l0,-9.772l-1.396,-0l0,9.772Z" style="fill:#004772;"/><path d="M79.701,55.344c-0,1.17 -0.123,1.396 -0.369,1.971c-0.411,0.945 -1.397,1.519 -2.279,1.519c-0.719,0 -1.376,-0.492 -1.376,-1.416c-0,-1.663 2.176,-2.074 3.203,-2.074l0.821,0Zm0.041,4.435l1.355,0l-0,-6.857c-0,-1.232 -0.246,-3.141 -3.285,-3.141c-2.669,0 -3.489,1.499 -3.51,2.73l1.56,0c0.103,-0.76 0.411,-1.56 1.991,-1.56c0.74,0 1.561,0.267 1.786,1.355c0.062,0.328 0.062,1.396 0.062,1.868c-0.328,0.062 -0.616,0.062 -0.965,0.062c-1.704,0 -4.66,0.759 -4.66,3.038c-0,1.745 1.026,2.731 2.628,2.731c1.786,0 2.751,-1.048 2.997,-1.52l0.041,0l-0,1.294Z" style="fill:#004772;"/><path d="M89.773,59.779l1.436,-0l-0,-12.461l0.042,-0l4.167,12.461l1.581,-0l4.167,-12.461l0.042,-0l-0,12.461l1.437,-0l-0,-14.165l-2.382,-0l-4.024,12.051l-0.041,-0l-4.024,-12.051l-2.401,-0l-0,14.165Z" style="fill:#004772;"/><path d="M110.852,55.344c0,1.17 -0.123,1.396 -0.369,1.971c-0.411,0.945 -1.396,1.519 -2.279,1.519c-0.719,0 -1.375,-0.492 -1.375,-1.416c0,-1.663 2.176,-2.074 3.202,-2.074l0.821,0Zm0.041,4.435l1.355,0l0,-6.857c0,-1.232 -0.246,-3.141 -3.284,-3.141c-2.669,0 -3.49,1.499 -3.511,2.73l1.56,0c0.103,-0.76 0.411,-1.56 1.992,-1.56c0.739,0 1.56,0.267 1.786,1.355c0.061,0.328 0.061,1.396 0.061,1.868c-0.328,0.062 -0.616,0.062 -0.965,0.062c-1.703,0 -4.659,0.759 -4.659,3.038c0,1.745 1.026,2.731 2.627,2.731c1.786,0 2.751,-1.048 2.997,-1.52l0.041,0l0,1.294Z" style="fill:#004772;"/><path d="M116.393,54.975c-0,-2.094 0.554,-4.024 2.032,-4.024c1.663,0 2.3,2.238 2.3,3.757c-0,1.642 -0.657,3.9 -2.341,3.9c-1.662,0 -1.991,-2.135 -1.991,-3.633m5.728,-4.968l-1.396,0l-0,1.601l-0.041,0c-0.165,-0.616 -0.883,-1.827 -2.546,-1.827c-2.423,0 -3.347,2.566 -3.347,5.173c-0,2.423 0.74,4.825 3.306,4.825c1.683,0 2.381,-1.212 2.587,-1.868l0.041,0l-0,1.724c-0,1.745 -0.432,3.244 -2.957,3.244c-1.334,0 -2.299,-0.513 -2.442,-0.575l-0,1.416c0.328,0.062 1.129,0.329 2.648,0.329c2.812,0 4.147,-1.478 4.147,-4.25l-0,-9.792Z" style="fill:#004772;"/><path d="M126.263,55.242c-0.001,-2.074 0.41,-4.291 2.072,-4.291c1.478,0 2.258,1.807 2.258,3.983c0,1.683 -0.698,3.9 -2.299,3.9c-1.847,0 -2.032,-2.34 -2.032,-3.592m4.331,4.537l1.396,0l0,-14.166l-1.395,0l-0,5.995l-0.041,0c-0.246,-0.698 -0.862,-1.827 -2.566,-1.827c-2.402,0 -3.326,2.566 -3.326,5.194c-0.001,3.1 0.986,5.03 3.346,5.03c1.56,0 2.34,-1.191 2.546,-1.889l0.041,0l-0,1.663Z" style="fill:#004772;"/><path d="M140.094,55.344c-0,1.17 -0.123,1.396 -0.369,1.971c-0.411,0.945 -1.396,1.519 -2.279,1.519c-0.719,0 -1.375,-0.492 -1.375,-1.416c-0,-1.663 2.175,-2.074 3.202,-2.074l0.821,0Zm0.041,4.435l1.355,0l-0,-6.857c-0,-1.232 -0.246,-3.141 -3.285,-3.141c-2.668,0 -3.489,1.499 -3.51,2.73l1.56,0c0.103,-0.76 0.411,-1.56 1.992,-1.56c0.739,0 1.56,0.267 1.786,1.355c0.061,0.328 0.061,1.396 0.061,1.868c-0.328,0.062 -0.617,0.062 -0.965,0.062c-1.703,0 -4.659,0.759 -4.659,3.038c-0,1.745 1.025,2.731 2.626,2.731c1.786,0 2.751,-1.048 2.998,-1.52l0.041,0l-0,1.294Z" style="fill:#004772;"/><rect x="144.874" y="45.614" width="1.396" height="14.165" style="fill:#004772;"/><path d="M150.743,52.799c0.123,-0.657 0.595,-1.848 2.053,-1.848c1.417,-0 1.868,1.191 1.868,1.848l-3.921,-0Zm5.297,5.769c-0.452,0.103 -0.842,0.267 -1.93,0.267c-2.813,-0 -3.469,-2.813 -3.469,-4.291l-0,-0.575l5.624,-0l-0,-0.472c-0,-2.135 -1.108,-3.716 -3.408,-3.716c-2.607,-0 -3.818,1.869 -3.818,4.784c-0,3.612 1.745,5.44 4.763,5.44c0.903,-0 1.642,-0.103 2.238,-0.288l-0,-1.149Z" style="fill:#004772;"/><path d="M158.804,59.779l1.395,-0l0,-4.024c0,-1.765 0.924,-4.578 2.772,-4.578c1.437,-0 1.437,1.499 1.437,3.182l0,5.42l1.396,-0l0,-6.98c0,-1.622 -0.841,-3.018 -2.504,-3.018c-2.177,-0 -2.792,1.684 -3.06,2.484l-0.041,-0l0,-2.258l-1.395,-0l0,9.772Z" style="fill:#004772;"/><path d="M173.913,55.344c-0,1.17 -0.124,1.396 -0.37,1.971c-0.41,0.945 -1.396,1.519 -2.278,1.519c-0.719,0 -1.376,-0.492 -1.376,-1.416c-0,-1.663 2.176,-2.074 3.203,-2.074l0.821,0Zm0.041,4.435l1.355,0l-0,-6.857c-0,-1.232 -0.247,-3.141 -3.285,-3.141c-2.669,0 -3.49,1.499 -3.511,2.73l1.561,0c0.103,-0.76 0.411,-1.56 1.991,-1.56c0.739,0 1.56,0.267 1.786,1.355c0.062,0.328 0.062,1.396 0.062,1.868c-0.329,0.062 -0.616,0.062 -0.965,0.062c-1.704,0 -4.66,0.759 -4.66,3.038c-0,1.745 1.026,2.731 2.627,2.731c1.786,0 2.751,-1.048 2.998,-1.52l0.041,0l-0,1.294Z" style="fill:#004772;"/><path d="M189.385,59.779l1.396,-0l-0,-9.772l-1.396,-0l-0,4.024c-0,1.765 -0.904,4.578 -2.751,4.578c-1.437,-0 -1.437,-1.499 -1.437,-3.182l-0,-5.42l-1.396,-0l-0,6.98c-0,1.622 0.821,3.018 2.504,3.018c2.176,-0 2.792,-1.684 3.039,-2.484l0.041,-0l-0,2.258Z" style="fill:#004772;"/><path d="M194.146,59.779l1.396,-0l0,-4.024c0,-1.765 0.924,-4.578 2.771,-4.578c1.437,-0 1.437,1.499 1.437,3.182l0,5.42l1.396,-0l0,-6.98c0,-1.622 -0.841,-3.018 -2.504,-3.018c-2.176,-0 -2.792,1.684 -3.059,2.484l-0.041,-0l0,-2.258l-1.396,-0l0,9.772Z" style="fill:#004772;"/><path d="M205.293,55.242c-0,-2.074 0.411,-4.291 2.073,-4.291c1.479,0 2.259,1.807 2.259,3.983c-0,1.683 -0.698,3.9 -2.3,3.9c-1.847,0 -2.032,-2.34 -2.032,-3.592m4.332,4.537l1.396,0l-0,-14.166l-1.396,0l-0,5.995l-0.041,0c-0.247,-0.698 -0.863,-1.827 -2.566,-1.827c-2.403,0 -3.326,2.566 -3.326,5.194c-0,3.1 0.985,5.03 3.346,5.03c1.56,0 2.34,-1.191 2.546,-1.889l0.041,0l-0,1.663Z" style="fill:#004772;"/><path d="M57.618,78.621c-0.431,0.329 -1.581,1.17 -3.366,1.17c-3.491,-0 -4.086,-3.797 -4.086,-6.159c0,-2.709 0.595,-5.789 3.593,-5.789c1.663,-0 2.587,1.171 2.587,2.751l1.806,-0c0,-2.299 -1.56,-4.085 -4.393,-4.085c-4.065,-0 -5.338,3.387 -5.338,7.041c0,3.449 1.15,7.575 5.44,7.575c2.115,-0 3.162,-0.595 3.757,-0.841l0,-1.663Z" style="fill:#004772;"/><path d="M60.036,80.9l1.396,-0l-0,-4.024c-0,-1.765 0.924,-4.578 2.772,-4.578c1.437,-0 1.437,1.499 1.437,3.182l-0,5.42l1.396,-0l-0,-6.98c-0,-1.622 -0.842,-3.018 -2.505,-3.018c-2.176,-0 -2.792,1.684 -3.059,2.484l-0.041,-0l-0,-6.652l-1.396,-0l-0,14.166Z" style="fill:#004772;"/><path d="M70.3,80.9l1.396,-0l0,-4.044c0,-2.628 1.088,-4.456 3.306,-4.456l0,-1.498c-2.239,-0 -2.977,1.457 -3.265,2.115l-0.041,-0l0,-1.889l-1.396,-0l0,9.772Z" style="fill:#004772;"/><path d="M76.66,68.582l1.848,-0l0,-1.848l-1.848,-0l0,1.848Zm0.225,12.318l1.396,-0l0,-9.772l-1.396,-0l0,9.772Z" style="fill:#004772;"/><path d="M84.027,74.885c-0.78,-0.412 -1.766,-0.74 -1.766,-1.541c0,-0.697 0.781,-1.273 1.972,-1.273c0.985,0 1.95,0.329 2.278,0.452l0,-1.293c-0.451,-0.103 -1.252,-0.328 -2.299,-0.328c-2.176,0.001 -3.347,1.005 -3.347,2.587c0,1.6 1.314,2.135 2.218,2.647l0.883,0.473c0.574,0.328 1.765,0.759 1.765,1.765c0,1.129 -1.026,1.581 -2.381,1.581c-1.109,0 -2.279,-0.431 -2.526,-0.513l0,1.273c0.39,0.123 1.396,0.41 2.669,0.41c2.279,0.001 3.634,-1.005 3.634,-2.956c0,-1.682 -1.252,-2.258 -2.279,-2.791l-0.821,-0.493Z" style="fill:#004772;"/><path d="M93.917,79.771c-0.308,0.102 -0.492,0.184 -0.944,0.184c-1.437,-0 -1.601,-1.005 -1.601,-1.642l0,-6.015l2.628,-0l0,-1.17l-2.628,-0l0,-3.162l-1.396,0.883l0,2.279l-1.601,-0l0,1.17l1.601,-0l0,6.302c0,1.746 0.739,2.525 2.71,2.525c0.41,-0 0.821,-0.041 1.231,-0.102l0,-1.252Z" style="fill:#004772;"/><path d="M96.025,68.582l1.848,-0l0,-1.848l-1.848,-0l0,1.848Zm0.226,12.318l1.396,-0l0,-9.772l-1.396,-0l0,9.772Z" style="fill:#004772;"/><path d="M110.409,68.192l0.041,0l2.073,7.001l-4.188,0l2.074,-7.001Zm-5.481,12.708l1.601,0l1.376,-4.373l5.049,0l1.417,4.373l1.601,0l-4.578,-14.166l-1.95,0l-4.516,14.166Z" style="fill:#004772;"/><path d="M123.294,80.9l1.395,-0l0,-9.772l-1.395,-0l0,4.024c0,1.765 -0.904,4.577 -2.751,4.577c-1.438,-0 -1.438,-1.498 -1.438,-3.182l0,-5.419l-1.396,-0l0,6.98c0,1.621 0.822,3.018 2.505,3.018c2.176,-0 2.792,-1.684 3.038,-2.484l0.042,-0l0,2.258Z" style="fill:#004772;"/><path d="M128.631,80.9l1.396,-0l-0,-8.602l2.812,-0l-0,-1.17l-2.812,-0l-0,-1.067c-0,-1.314 0.431,-2.218 2.053,-2.218c0.595,-0 1.047,0.144 1.417,0.267l-0,-1.252c-0.452,-0.103 -0.965,-0.185 -1.663,-0.185c-2.443,-0 -3.203,1.499 -3.203,3.1l-0,1.355l-1.642,-0l-0,1.17l1.642,-0l-0,8.602Z" style="fill:#004772;"/><path d="M135.565,73.92c0.123,-0.657 0.596,-1.848 2.053,-1.848c1.417,-0 1.868,1.191 1.868,1.848l-3.921,-0Zm5.297,5.768c-0.452,0.103 -0.842,0.268 -1.93,0.268c-2.812,-0 -3.469,-2.813 -3.469,-4.291l-0,-0.575l5.625,-0l-0,-0.472c-0,-2.135 -1.109,-3.716 -3.408,-3.716c-2.608,-0 -3.819,1.869 -3.819,4.784c-0,3.612 1.745,5.44 4.763,5.44c0.903,-0 1.643,-0.103 2.238,-0.288l-0,-1.15Z" style="fill:#004772;"/><path d="M143.626,80.9l1.396,-0l0,-4.044c0,-2.628 1.088,-4.456 3.305,-4.456l0,-1.498c-2.238,-0 -2.977,1.457 -3.264,2.115l-0.041,-0l0,-1.889l-1.396,-0l0,9.772Z" style="fill:#004772;"/><path d="M152.408,74.885c-0.78,-0.412 -1.766,-0.74 -1.766,-1.541c0,-0.697 0.781,-1.273 1.971,-1.273c0.986,0 1.951,0.329 2.279,0.452l0,-1.293c-0.451,-0.103 -1.252,-0.328 -2.299,-0.328c-2.177,0.001 -3.347,1.005 -3.347,2.587c0,1.6 1.314,2.135 2.218,2.647l0.883,0.473c0.574,0.328 1.765,0.759 1.765,1.765c0,1.129 -1.027,1.581 -2.382,1.581c-1.108,0 -2.279,-0.431 -2.525,-0.513l0,1.273c0.39,0.123 1.396,0.41 2.669,0.41c2.279,0.001 3.634,-1.005 3.634,-2.956c0,-1.682 -1.252,-2.258 -2.279,-2.791l-0.821,-0.493Z" style="fill:#004772;"/><path d="M162.299,79.771c-0.308,0.102 -0.493,0.184 -0.944,0.184c-1.437,-0 -1.602,-1.005 -1.602,-1.642l-0,-6.015l2.628,-0l-0,-1.17l-2.628,-0l-0,-3.162l-1.396,0.883l-0,2.279l-1.601,-0l-0,1.17l1.601,-0l-0,6.302c-0,1.746 0.739,2.525 2.71,2.525c0.411,-0 0.821,-0.041 1.232,-0.102l-0,-1.252Z" style="fill:#004772;"/><path d="M165.555,73.92c0.123,-0.657 0.596,-1.848 2.054,-1.848c1.416,-0 1.868,1.191 1.868,1.848l-3.922,-0Zm5.297,5.768c-0.451,0.103 -0.841,0.268 -1.93,0.268c-2.812,-0 -3.47,-2.813 -3.47,-4.291l0,-0.575l5.626,-0l0,-0.472c0,-2.135 -1.109,-3.716 -3.409,-3.716c-2.606,-0 -3.818,1.869 -3.818,4.784c0,3.612 1.745,5.44 4.764,5.44c0.903,-0 1.642,-0.103 2.237,-0.288l0,-1.15Z" style="fill:#004772;"/><path d="M173.617,80.9l1.396,-0l0,-4.024c0,-1.765 0.924,-4.578 2.771,-4.578c1.438,-0 1.438,1.499 1.438,3.182l0,5.42l1.396,-0l0,-6.98c0,-1.622 -0.842,-3.018 -2.505,-3.018c-2.176,-0 -2.792,1.684 -3.059,2.484l-0.041,-0l0,-6.652l-1.396,-0l0,14.166Z" style="fill:#004772;"/><path d="M189.384,80.9l1.396,-0l-0,-9.772l-1.396,-0l-0,4.024c-0,1.765 -0.903,4.577 -2.751,4.577c-1.437,-0 -1.437,-1.498 -1.437,-3.182l-0,-5.419l-1.396,-0l-0,6.98c-0,1.621 0.821,3.018 2.504,3.018c2.177,-0 2.792,-1.684 3.039,-2.484l0.041,-0l-0,2.258Z" style="fill:#004772;"/><path d="M194.146,80.9l1.396,-0l-0,-4.024c-0,-1.765 0.924,-4.578 2.772,-4.578c1.436,-0 1.436,1.499 1.436,3.182l-0,5.42l1.397,-0l-0,-6.98c-0,-1.622 -0.842,-3.018 -2.505,-3.018c-2.176,-0 -2.792,1.684 -3.059,2.484l-0.041,-0l-0,-2.258l-1.396,-0l-0,9.772Z" style="fill:#004772;"/><path d="M205.293,76.096c-0,-2.094 0.554,-4.024 2.032,-4.024c1.663,-0 2.3,2.238 2.3,3.757c-0,1.642 -0.657,3.9 -2.341,3.9c-1.662,-0 -1.991,-2.134 -1.991,-3.633m5.728,-4.968l-1.396,-0l-0,1.601l-0.041,-0c-0.165,-0.616 -0.883,-1.827 -2.546,-1.827c-2.423,-0 -3.347,2.566 -3.347,5.174c-0,2.422 0.739,4.824 3.306,4.824c1.683,-0 2.381,-1.212 2.587,-1.868l0.041,-0l-0,1.724c-0,1.745 -0.432,3.244 -2.956,3.244c-1.335,-0 -2.3,-0.513 -2.444,-0.575l-0,1.416c0.329,0.062 1.13,0.329 2.649,0.329c2.813,-0 4.147,-1.478 4.147,-4.25l-0,-9.792Z" style="fill:#004772;"/></g></svg>