<svg clip-rule="evenodd" fill-rule="evenodd" stroke-linejoin="round" stroke-miterlimit="2" viewBox="0 0 307 86" xmlns="http://www.w3.org/2000/svg"><path d="m263.611 38.939h-34.464v-34.464h34.464z" fill="#004772" fill-rule="nonzero"/><path d="m306.285 9.029c0 4.986-4.041 9.028-9.028 9.028-2.492 0-4.749-1.012-6.384-2.645-1.634-1.633-2.644-3.891-2.644-6.383 0-2.494 1.01-4.751 2.644-6.385 1.635-1.634 3.892-2.644 6.384-2.644 2.493 0 4.75 1.01 6.383 2.644 1.637 1.634 2.645 3.891 2.645 6.385" fill="#f3b223" fill-rule="nonzero"/><path d="m306.091 80.636h-34.464v-34.464h34.464z" fill="#004772" fill-rule="nonzero"/><path d="m263.61 46.176.001 17.233v17.231h-34.464v-34.463h17.233z" fill="#004772" fill-rule="nonzero"/><path d="m290.04 57.623-17.319 1.82-17.32 1.821-1.82-17.319-1.821-17.319 17.321-1.821 17.318-1.82 1.821 17.32z" fill="#f3b223" fill-rule="nonzero"/><g fill="#004772"><path d="m-.006 37.658h1.601v-6.939h.041l5.379 6.939h1.889l-5.728-7.37 5.297-6.796h-1.869l-4.968 6.426h-.041v-6.426h-1.601v14.166z"/><path d="m14.991 33.223c0 1.17-.123 1.396-.37 1.971-.41.944-1.396 1.519-2.278 1.519-.719 0-1.376-.493-1.376-1.416 0-1.663 2.176-2.074 3.203-2.074zm.041 4.435h1.355v-6.857c0-1.232-.247-3.141-3.285-3.141-2.669 0-3.49 1.499-3.51 2.73h1.56c.103-.759.411-1.56 1.991-1.56.739 0 1.56.267 1.787 1.355.061.328.061 1.396.061 1.868-.329.062-.616.062-.965.062-1.704 0-4.66.759-4.66 3.038 0 1.745 1.026 2.73 2.628 2.73 1.786 0 2.75-1.047 2.997-1.519h.041z"/><path d="m24.268 36.529c-.308.102-.492.184-.944.184-1.437 0-1.601-1.005-1.601-1.642v-6.015h2.628v-1.17h-2.628v-3.162l-1.396.883v2.279h-1.602v1.17h1.602v6.302c0 1.746.738 2.525 2.709 2.525.411 0 .822-.04 1.232-.102z"/><path d="m26.478 37.658h1.396v-4.024c0-1.765.924-4.578 2.772-4.578 1.437 0 1.437 1.499 1.437 3.182v5.42h1.396v-6.98c0-1.622-.842-3.018-2.505-3.018-2.176 0-2.792 1.684-3.059 2.484h-.041v-6.652h-1.396z"/><path d="m37.646 32.772c0-2.443.801-3.941 2.381-3.941 1.601 0 2.423 1.498 2.423 3.941 0 2.464-.822 3.942-2.423 3.942-1.58 0-2.381-1.478-2.381-3.942m2.381 5.112c2.895 0 4.024-2.238 4.024-5.092 0-2.853-1.129-5.132-4.024-5.132-2.874 0-3.982 2.279-3.982 5.132 0 2.854 1.108 5.092 3.982 5.092"/><path d="m46.735 23.492h1.396v14.166h-1.396z"/><path d="m51.454 25.34h1.848v-1.848h-1.848zm.226 12.318h1.396v-9.772h-1.396z"/><path d="m58.821 31.643c-.78-.411-1.766-.739-1.766-1.54 0-.697.781-1.273 1.971-1.273.986 0 1.951.329 2.279.452v-1.293c-.451-.103-1.252-.329-2.299-.329-2.176 0-3.346 1.006-3.346 2.587 0 1.601 1.313 2.135 2.217 2.649l.883.472c.575.328 1.765.759 1.765 1.765 0 1.129-1.026 1.581-2.381 1.581-1.109 0-2.279-.431-2.525-.513v1.273c.389.123 1.395.41 2.669.41 2.279 0 3.633-1.006 3.633-2.956 0-1.683-1.252-2.259-2.278-2.792z"/><path d="m70.457 36.509c-.534.184-1.232.204-1.581.204-3.243 0-3.88-2.607-3.88-4.476 0-1.478.555-3.407 2.32-3.407 1.314 0 1.745.985 1.745 2.032h1.663c0-1.56-.739-3.202-3.346-3.202-2.813 0-3.983 1.95-3.983 4.886 0 3.531 1.909 5.337 5.03 5.337.903 0 1.416-.082 2.032-.267v-1.108z"/><path d="m72.833 37.658h1.396v-4.024c0-1.765.924-4.578 2.772-4.578 1.437 0 1.437 1.499 1.437 3.182v5.42h1.396v-6.98c0-1.622-.842-3.018-2.505-3.018-2.176 0-2.792 1.684-3.059 2.484h-.041v-6.652h-1.396z"/><path d="m84.144 30.678c.124-.657.596-1.848 2.053-1.848 1.417 0 1.868 1.191 1.868 1.848zm5.297 5.769c-.452.103-.841.267-1.93.267-2.812 0-3.469-2.813-3.469-4.291v-.575h5.625v-.472c0-2.135-1.109-3.716-3.408-3.716-2.608 0-3.819 1.869-3.819 4.784 0 3.612 1.745 5.44 4.763 5.44.903 0 1.643-.103 2.238-.288z"/><path d="m99.222 24.827h1.334c1.15 0 3.244 0 3.244 2.607 0 1.622-.842 2.566-2.854 2.566h-1.724zm-1.602 12.831h1.602v-6.323h1.683c2.608 0 4.496-1.068 4.496-3.921 0-3.881-3.387-3.922-4.496-3.922h-3.285l-.001 14.166z"/><path d="m107.962 37.658h1.396v-8.602h2.812v-1.17h-2.812v-1.067c0-1.314.431-2.218 2.053-2.218.595 0 1.047.144 1.417.267v-1.252c-.453-.103-.965-.185-1.663-.185-2.443 0-3.203 1.499-3.203 3.1v1.355h-1.643v1.17h1.643z"/><path d="m118.694 33.223c0 1.17-.123 1.396-.369 1.971-.411.944-1.397 1.519-2.279 1.519-.719 0-1.376-.493-1.376-1.416 0-1.663 2.176-2.074 3.203-2.074zm.041 4.435h1.355v-6.857c0-1.232-.247-3.141-3.285-3.141-2.669 0-3.49 1.499-3.51 2.73h1.56c.103-.759.411-1.56 1.991-1.56.74 0 1.561.267 1.786 1.355.062.328.062 1.396.062 1.868-.328.062-.616.062-.965.062-1.703 0-4.66.759-4.66 3.038 0 1.745 1.026 2.73 2.628 2.73 1.786 0 2.751-1.047 2.997-1.519h.041z"/><path d="m123.352 37.658h1.395v-4.044c0-2.628 1.089-4.455 3.306-4.455v-1.499c-2.238 0-2.977 1.458-3.265 2.115h-.041v-1.889h-1.395z"/><path d="m129.813 37.658h1.396v-4.044c0-2.628 1.088-4.455 3.305-4.455v-1.499c-2.238 0-2.977 1.458-3.264 2.115h-.041v-1.889h-1.396z"/><path d="m137.158 32.854c0-2.094.554-4.024 2.032-4.024 1.663 0 2.3 2.238 2.3 3.757 0 1.642-.657 3.9-2.341 3.9-1.662 0-1.991-2.134-1.991-3.633m5.728-4.968h-1.396v1.601h-.041c-.165-.616-.883-1.827-2.546-1.827-2.423 0-3.347 2.566-3.347 5.174 0 2.422.74 4.824 3.306 4.824 1.683 0 2.381-1.212 2.587-1.868h.041v1.724c0 1.745-.432 3.244-2.956 3.244-1.335 0-2.3-.513-2.444-.575v1.416c.329.062 1.13.329 2.649.329 2.812 0 4.147-1.478 4.147-4.25v-9.792z"/><path d="m147.192 30.678c.123-.657.596-1.848 2.053-1.848 1.417 0 1.868 1.191 1.868 1.848zm5.297 5.769c-.452.103-.841.267-1.93.267-2.812 0-3.47-2.813-3.47-4.291v-.575h5.625v-.472c0-2.135-1.108-3.716-3.407-3.716-2.608 0-3.819 1.869-3.819 4.784 0 3.612 1.745 5.44 4.763 5.44.903 0 1.643-.103 2.238-.288z"/><path d="m155.232 37.658h1.396v-4.024c0-1.765.821-4.578 2.443-4.578 1.437 0 1.437 1.499 1.437 3.182v5.42h1.396v-4.024c0-1.745.801-4.578 2.444-4.578 1.437 0 1.437 1.478 1.437 3.182v5.42h1.395v-6.98c0-1.622-.842-3.018-2.504-3.018-1.745 0-2.525 1.499-2.772 2.238h-.041c-.102-1.293-.821-2.238-2.464-2.238-1.95 0-2.504 1.684-2.73 2.484h-.041v-2.258h-1.396z"/><path d="m171.509 30.678c.123-.657.595-1.848 2.053-1.848 1.417 0 1.868 1.191 1.868 1.848zm5.297 5.769c-.452.103-.842.267-1.93.267-2.813 0-3.47-2.813-3.47-4.291v-.575h5.625v-.472c0-2.135-1.108-3.716-3.408-3.716-2.607 0-3.818 1.869-3.818 4.784 0 3.612 1.745 5.44 4.763 5.44.903 0 1.642-.103 2.238-.288z"/><path d="m179.467 25.34h1.847v-1.848h-1.847zm.226 12.318h1.396v-9.772h-1.396z"/><path d="m184.515 37.658h1.396v-4.024c0-1.765.924-4.578 2.772-4.578 1.437 0 1.437 1.499 1.437 3.182v5.42h1.396v-6.98c0-1.622-.842-3.018-2.505-3.018-2.176 0-2.792 1.684-3.059 2.484h-.041v-2.258h-1.396z"/><path d="m195.662 33.121c0-2.074.411-4.29 2.073-4.29 1.479 0 2.258 1.806 2.258 3.982 0 1.684-.697 3.901-2.298 3.901-1.848 0-2.033-2.34-2.033-3.593m4.331 4.537h1.396v-14.165h-1.396v5.995h-.041c-.246-.698-.862-1.828-2.565-1.828-2.403 0-3.326 2.566-3.326 5.194 0 3.101.985 5.03 3.346 5.03 1.56 0 2.34-1.191 2.545-1.888h.041z"/><path d="m205.696 30.678c.123-.657.595-1.848 2.053-1.848 1.417 0 1.868 1.191 1.868 1.848zm5.297 5.769c-.452.103-.842.267-1.93.267-2.813 0-3.47-2.813-3.47-4.291v-.575h5.625v-.472c0-2.135-1.109-3.716-3.408-3.716-2.607 0-3.818 1.869-3.818 4.784 0 3.612 1.745 5.44 4.763 5.44.903 0 1.642-.103 2.238-.288z"/><path d="m14.679 51.403c-1.108-.616-2.361-1.273-2.361-2.525 0-1.314 1.047-2.156 2.669-2.156 1.519 0 2.751.473 3.1.616v-1.58c-.493-.103-1.601-.37-2.956-.37-2.608 0-4.558 1.19-4.558 3.634 0 2.155 1.745 2.935 3.059 3.675l1.252.697c1.171.657 2.361 1.253 2.361 2.854 0 1.56-1.313 2.423-3.059 2.423-1.724 0-3.141-.617-3.449-.74v1.643c.37.082 1.745.431 3.264.431 2.649 0 4.989-1.027 4.989-3.983 0-2.238-1.56-3.1-2.997-3.901z"/><path d="m25.904 58.65c-.308.103-.493.185-.944.185-1.437 0-1.602-1.006-1.602-1.643v-6.015h2.628v-1.17h-2.628v-3.162l-1.395.883v2.279h-1.602v1.17h1.602v6.303c0 1.745.738 2.525 2.709 2.525.411 0 .821-.041 1.232-.103z"/><path d="m27.539 57.726h2.053v2.053h-2.053z"/><path d="m37.712 59.779h1.437v-12.461h.041l4.168 12.461h1.58l4.167-12.461h.041v12.461h1.438v-14.165h-2.382l-4.024 12.051h-.041l-4.024-12.051h-2.401z"/><path d="m58.792 55.344c0 1.17-.123 1.396-.37 1.971-.41.945-1.396 1.519-2.279 1.519-.718 0-1.375-.492-1.375-1.416 0-1.663 2.176-2.074 3.203-2.074zm.041 4.435h1.355v-6.857c0-1.232-.247-3.141-3.285-3.141-2.669 0-3.49 1.499-3.511 2.73h1.561c.103-.76.411-1.56 1.991-1.56.739 0 1.561.267 1.786 1.355.062.328.062 1.396.062 1.868-.328.062-.616.062-.965.062-1.704 0-4.66.759-4.66 3.038 0 1.745 1.026 2.731 2.627 2.731 1.787 0 2.752-1.048 2.998-1.52h.041z"/><path d="m63.45 59.779h1.395v-4.044c0-2.628 1.089-4.455 3.306-4.455v-1.499c-2.238 0-2.977 1.458-3.265 2.115h-.041v-1.889h-1.395z"/><path d="m69.808 47.461h1.848v-1.848h-1.848zm.226 12.318h1.396v-9.772h-1.396z"/><path d="m79.701 55.344c0 1.17-.123 1.396-.369 1.971-.411.945-1.397 1.519-2.279 1.519-.719 0-1.376-.492-1.376-1.416 0-1.663 2.176-2.074 3.203-2.074zm.041 4.435h1.355v-6.857c0-1.232-.246-3.141-3.285-3.141-2.669 0-3.489 1.499-3.51 2.73h1.56c.103-.76.411-1.56 1.991-1.56.74 0 1.561.267 1.786 1.355.062.328.062 1.396.062 1.868-.328.062-.616.062-.965.062-1.704 0-4.66.759-4.66 3.038 0 1.745 1.026 2.731 2.628 2.731 1.786 0 2.751-1.048 2.997-1.52h.041z"/><path d="m89.773 59.779h1.436v-12.461h.042l4.167 12.461h1.581l4.167-12.461h.042v12.461h1.437v-14.165h-2.382l-4.024 12.051h-.041l-4.024-12.051h-2.401z"/><path d="m110.852 55.344c0 1.17-.123 1.396-.369 1.971-.411.945-1.396 1.519-2.279 1.519-.719 0-1.375-.492-1.375-1.416 0-1.663 2.176-2.074 3.202-2.074zm.041 4.435h1.355v-6.857c0-1.232-.246-3.141-3.284-3.141-2.669 0-3.49 1.499-3.511 2.73h1.56c.103-.76.411-1.56 1.992-1.56.739 0 1.56.267 1.786 1.355.061.328.061 1.396.061 1.868-.328.062-.616.062-.965.062-1.703 0-4.659.759-4.659 3.038 0 1.745 1.026 2.731 2.627 2.731 1.786 0 2.751-1.048 2.997-1.52h.041z"/><path d="m116.393 54.975c0-2.094.554-4.024 2.032-4.024 1.663 0 2.3 2.238 2.3 3.757 0 1.642-.657 3.9-2.341 3.9-1.662 0-1.991-2.135-1.991-3.633m5.728-4.968h-1.396v1.601h-.041c-.165-.616-.883-1.827-2.546-1.827-2.423 0-3.347 2.566-3.347 5.173 0 2.423.74 4.825 3.306 4.825 1.683 0 2.381-1.212 2.587-1.868h.041v1.724c0 1.745-.432 3.244-2.957 3.244-1.334 0-2.299-.513-2.442-.575v1.416c.328.062 1.129.329 2.648.329 2.812 0 4.147-1.478 4.147-4.25z"/><path d="m126.263 55.242c-.001-2.074.41-4.291 2.072-4.291 1.478 0 2.258 1.807 2.258 3.983 0 1.683-.698 3.9-2.299 3.9-1.847 0-2.032-2.34-2.032-3.592m4.331 4.537h1.396v-14.166h-1.395v5.995h-.041c-.246-.698-.862-1.827-2.566-1.827-2.402 0-3.326 2.566-3.326 5.194-.001 3.1.986 5.03 3.346 5.03 1.56 0 2.34-1.191 2.546-1.889h.041v1.663z"/><path d="m140.094 55.344c0 1.17-.123 1.396-.369 1.971-.411.945-1.396 1.519-2.279 1.519-.719 0-1.375-.492-1.375-1.416 0-1.663 2.175-2.074 3.202-2.074zm.041 4.435h1.355v-6.857c0-1.232-.246-3.141-3.285-3.141-2.668 0-3.489 1.499-3.51 2.73h1.56c.103-.76.411-1.56 1.992-1.56.739 0 1.56.267 1.786 1.355.061.328.061 1.396.061 1.868-.328.062-.617.062-.965.062-1.703 0-4.659.759-4.659 3.038 0 1.745 1.025 2.731 2.626 2.731 1.786 0 2.751-1.048 2.998-1.52h.041z"/><path d="m144.874 45.614h1.396v14.165h-1.396z"/><path d="m150.743 52.799c.123-.657.595-1.848 2.053-1.848 1.417 0 1.868 1.191 1.868 1.848zm5.297 5.769c-.452.103-.842.267-1.93.267-2.813 0-3.469-2.813-3.469-4.291v-.575h5.624v-.472c0-2.135-1.108-3.716-3.408-3.716-2.607 0-3.818 1.869-3.818 4.784 0 3.612 1.745 5.44 4.763 5.44.903 0 1.642-.103 2.238-.288z"/><path d="m158.804 59.779h1.395v-4.024c0-1.765.924-4.578 2.772-4.578 1.437 0 1.437 1.499 1.437 3.182v5.42h1.396v-6.98c0-1.622-.841-3.018-2.504-3.018-2.177 0-2.792 1.684-3.06 2.484h-.041v-2.258h-1.395z"/><path d="m173.913 55.344c0 1.17-.124 1.396-.37 1.971-.41.945-1.396 1.519-2.278 1.519-.719 0-1.376-.492-1.376-1.416 0-1.663 2.176-2.074 3.203-2.074zm.041 4.435h1.355v-6.857c0-1.232-.247-3.141-3.285-3.141-2.669 0-3.49 1.499-3.511 2.73h1.561c.103-.76.411-1.56 1.991-1.56.739 0 1.56.267 1.786 1.355.062.328.062 1.396.062 1.868-.329.062-.616.062-.965.062-1.704 0-4.66.759-4.66 3.038 0 1.745 1.026 2.731 2.627 2.731 1.786 0 2.751-1.048 2.998-1.52h.041z"/><path d="m189.385 59.779h1.396v-9.772h-1.396v4.024c0 1.765-.904 4.578-2.751 4.578-1.437 0-1.437-1.499-1.437-3.182v-5.42h-1.396v6.98c0 1.622.821 3.018 2.504 3.018 2.176 0 2.792-1.684 3.039-2.484h.041z"/><path d="m194.146 59.779h1.396v-4.024c0-1.765.924-4.578 2.771-4.578 1.437 0 1.437 1.499 1.437 3.182v5.42h1.396v-6.98c0-1.622-.841-3.018-2.504-3.018-2.176 0-2.792 1.684-3.059 2.484h-.041v-2.258h-1.396z"/><path d="m205.293 55.242c0-2.074.411-4.291 2.073-4.291 1.479 0 2.259 1.807 2.259 3.983 0 1.683-.698 3.9-2.3 3.9-1.847 0-2.032-2.34-2.032-3.592m4.332 4.537h1.396v-14.166h-1.396v5.995h-.041c-.247-.698-.863-1.827-2.566-1.827-2.403 0-3.326 2.566-3.326 5.194 0 3.1.985 5.03 3.346 5.03 1.56 0 2.34-1.191 2.546-1.889h.041z"/><path d="m57.618 78.621c-.431.329-1.581 1.17-3.366 1.17-3.491 0-4.086-3.797-4.086-6.159 0-2.709.595-5.789 3.593-5.789 1.663 0 2.587 1.171 2.587 2.751h1.806c0-2.299-1.56-4.085-4.393-4.085-4.065 0-5.338 3.387-5.338 7.041 0 3.449 1.15 7.575 5.44 7.575 2.115 0 3.162-.595 3.757-.841z"/><path d="m60.036 80.9h1.396v-4.024c0-1.765.924-4.578 2.772-4.578 1.437 0 1.437 1.499 1.437 3.182v5.42h1.396v-6.98c0-1.622-.842-3.018-2.505-3.018-2.176 0-2.792 1.684-3.059 2.484h-.041v-6.652h-1.396z"/><path d="m70.3 80.9h1.396v-4.044c0-2.628 1.088-4.456 3.306-4.456v-1.498c-2.239 0-2.977 1.457-3.265 2.115h-.041v-1.889h-1.396z"/><path d="m76.66 68.582h1.848v-1.848h-1.848zm.225 12.318h1.396v-9.772h-1.396z"/><path d="m84.027 74.885c-.78-.412-1.766-.74-1.766-1.541 0-.697.781-1.273 1.972-1.273.985 0 1.95.329 2.278.452v-1.293c-.451-.103-1.252-.328-2.299-.328-2.176.001-3.347 1.005-3.347 2.587 0 1.6 1.314 2.135 2.218 2.647l.883.473c.574.328 1.765.759 1.765 1.765 0 1.129-1.026 1.581-2.381 1.581-1.109 0-2.279-.431-2.526-.513v1.273c.39.123 1.396.41 2.669.41 2.279.001 3.634-1.005 3.634-2.956 0-1.682-1.252-2.258-2.279-2.791z"/><path d="m93.917 79.771c-.308.102-.492.184-.944.184-1.437 0-1.601-1.005-1.601-1.642v-6.015h2.628v-1.17h-2.628v-3.162l-1.396.883v2.279h-1.601v1.17h1.601v6.302c0 1.746.739 2.525 2.71 2.525.41 0 .821-.041 1.231-.102z"/><path d="m96.025 68.582h1.848v-1.848h-1.848zm.226 12.318h1.396v-9.772h-1.396z"/><path d="m110.409 68.192h.041l2.073 7.001h-4.188zm-5.481 12.708h1.601l1.376-4.373h5.049l1.417 4.373h1.601l-4.578-14.166h-1.95z"/><path d="m123.294 80.9h1.395v-9.772h-1.395v4.024c0 1.765-.904 4.577-2.751 4.577-1.438 0-1.438-1.498-1.438-3.182v-5.419h-1.396v6.98c0 1.621.822 3.018 2.505 3.018 2.176 0 2.792-1.684 3.038-2.484h.042z"/><path d="m128.631 80.9h1.396v-8.602h2.812v-1.17h-2.812v-1.067c0-1.314.431-2.218 2.053-2.218.595 0 1.047.144 1.417.267v-1.252c-.452-.103-.965-.185-1.663-.185-2.443 0-3.203 1.499-3.203 3.1v1.355h-1.642v1.17h1.642z"/><path d="m135.565 73.92c.123-.657.596-1.848 2.053-1.848 1.417 0 1.868 1.191 1.868 1.848zm5.297 5.768c-.452.103-.842.268-1.93.268-2.812 0-3.469-2.813-3.469-4.291v-.575h5.625v-.472c0-2.135-1.109-3.716-3.408-3.716-2.608 0-3.819 1.869-3.819 4.784 0 3.612 1.745 5.44 4.763 5.44.903 0 1.643-.103 2.238-.288z"/><path d="m143.626 80.9h1.396v-4.044c0-2.628 1.088-4.456 3.305-4.456v-1.498c-2.238 0-2.977 1.457-3.264 2.115h-.041v-1.889h-1.396z"/><path d="m152.408 74.885c-.78-.412-1.766-.74-1.766-1.541 0-.697.781-1.273 1.971-1.273.986 0 1.951.329 2.279.452v-1.293c-.451-.103-1.252-.328-2.299-.328-2.177.001-3.347 1.005-3.347 2.587 0 1.6 1.314 2.135 2.218 2.647l.883.473c.574.328 1.765.759 1.765 1.765 0 1.129-1.027 1.581-2.382 1.581-1.108 0-2.279-.431-2.525-.513v1.273c.39.123 1.396.41 2.669.41 2.279.001 3.634-1.005 3.634-2.956 0-1.682-1.252-2.258-2.279-2.791z"/><path d="m162.299 79.771c-.308.102-.493.184-.944.184-1.437 0-1.602-1.005-1.602-1.642v-6.015h2.628v-1.17h-2.628v-3.162l-1.396.883v2.279h-1.601v1.17h1.601v6.302c0 1.746.739 2.525 2.71 2.525.411 0 .821-.041 1.232-.102z"/><path d="m165.555 73.92c.123-.657.596-1.848 2.054-1.848 1.416 0 1.868 1.191 1.868 1.848zm5.297 5.768c-.451.103-.841.268-1.93.268-2.812 0-3.47-2.813-3.47-4.291v-.575h5.626v-.472c0-2.135-1.109-3.716-3.409-3.716-2.606 0-3.818 1.869-3.818 4.784 0 3.612 1.745 5.44 4.764 5.44.903 0 1.642-.103 2.237-.288z"/><path d="m173.617 80.9h1.396v-4.024c0-1.765.924-4.578 2.771-4.578 1.438 0 1.438 1.499 1.438 3.182v5.42h1.396v-6.98c0-1.622-.842-3.018-2.505-3.018-2.176 0-2.792 1.684-3.059 2.484h-.041v-6.652h-1.396z"/><path d="m189.384 80.9h1.396v-9.772h-1.396v4.024c0 1.765-.903 4.577-2.751 4.577-1.437 0-1.437-1.498-1.437-3.182v-5.419h-1.396v6.98c0 1.621.821 3.018 2.504 3.018 2.177 0 2.792-1.684 3.039-2.484h.041z"/><path d="m194.146 80.9h1.396v-4.024c0-1.765.924-4.578 2.772-4.578 1.436 0 1.436 1.499 1.436 3.182v5.42h1.397v-6.98c0-1.622-.842-3.018-2.505-3.018-2.176 0-2.792 1.684-3.059 2.484h-.041v-2.258h-1.396z"/><path d="m205.293 76.096c0-2.094.554-4.024 2.032-4.024 1.663 0 2.3 2.238 2.3 3.757 0 1.642-.657 3.9-2.341 3.9-1.662 0-1.991-2.134-1.991-3.633m5.728-4.968h-1.396v1.601h-.041c-.165-.616-.883-1.827-2.546-1.827-2.423 0-3.347 2.566-3.347 5.174 0 2.422.739 4.824 3.306 4.824 1.683 0 2.381-1.212 2.587-1.868h.041v1.724c0 1.745-.432 3.244-2.956 3.244-1.335 0-2.3-.513-2.444-.575v1.416c.329.062 1.13.329 2.649.329 2.813 0 4.147-1.478 4.147-4.25z"/></g></svg>